<?xml version="1.0" standalone="no"?>
<!DOCTYPE svg PUBLIC "-//W3C//DTD SVG 20010904//EN"
 "http://www.w3.org/TR/2001/REC-SVG-20010904/DTD/svg10.dtd">
<svg version="1.0" xmlns="http://www.w3.org/2000/svg"
 width="2002.000000pt" height="2002.000000pt" viewBox="0 0 2002.000000 2002.000000"
 preserveAspectRatio="xMidYMid meet">
<metadata>
Created by potrace 1.11, written by Peter Selinger 2001-2013
</metadata>
<g transform="translate(0.000000,2002.000000) scale(0.100000,-0.100000)"
fill="#000000" stroke="none">
<path d="M9949 19917 c-29 -50 -91 -159 -139 -242 -48 -82 -102 -177 -120
-210 -18 -33 -38 -67 -44 -75 -7 -8 -18 -28 -26 -45 -8 -16 -29 -53 -47 -82
-18 -29 -33 -54 -33 -57 0 -3 -24 -45 -53 -93 -29 -48 -64 -109 -77 -135 -14
-27 -28 -48 -32 -48 -5 0 -8 -5 -8 -11 0 -8 -95 -179 -149 -269 -12 -19 -215
-374 -255 -444 -16 -28 -33 -52 -38 -54 -4 -2 -8 -12 -8 -22 0 -9 -7 -23 -15
-30 -8 -7 -15 -16 -15 -21 0 -5 -11 -28 -26 -50 -14 -22 -34 -57 -46 -77 -11
-20 -81 -143 -156 -272 -74 -129 -140 -244 -146 -255 -6 -11 -15 -23 -21 -27
-5 -4 -610 -8 -1342 -8 -733 0 -1333 -3 -1333 -7 0 -5 19 -28 41 -53 23 -25
53 -61 67 -80 15 -19 34 -42 42 -50 9 -8 45 -51 80 -95 36 -44 69 -84 75 -90
6 -5 43 -48 81 -95 38 -47 71 -87 74 -90 3 -3 35 -40 70 -84 36 -43 76 -90 90
-105 14 -16 41 -47 60 -71 19 -24 53 -65 75 -90 43 -50 48 -56 144 -172 35
-43 68 -78 73 -78 5 0 7 -4 4 -9 -4 -5 -3 -11 2 -13 4 -1 54 -59 112 -128 58
-69 107 -127 110 -130 3 -3 39 -45 80 -95 41 -49 80 -95 85 -102 37 -42 104
-122 171 -203 43 -52 81 -97 84 -100 3 -3 37 -43 75 -90 38 -47 82 -97 97
-112 15 -16 26 -28 23 -28 -3 0 5 -12 18 -26 21 -24 27 -72 27 -204 0 -8 -1
-45 -1 -82 0 -37 2 -72 5 -77 4 -5 2 -12 -4 -16 -6 -4 -7 -13 -2 -23 5 -9 6
-30 2 -47 -3 -16 -3 -45 1 -62 4 -18 3 -33 -1 -33 -5 0 -5 -13 0 -29 4 -15 4
-34 0 -42 -5 -7 -5 -20 -1 -28 4 -9 5 -29 1 -46 -3 -16 -3 -45 1 -62 4 -18 3
-33 -1 -33 -5 0 -5 -13 0 -29 4 -15 4 -34 0 -42 -5 -7 -6 -17 -3 -22 11 -18
10 -1987 -1 -1988 -6 0 -641 -1 -1411 -2 -1040 -2 -1405 1 -1421 10 -19 9
-108 80 -160 126 -22 20 -45 40 -119 101 -135 112 -234 196 -291 245 -17 14
-55 46 -84 71 -30 25 -74 62 -99 84 -25 21 -66 54 -90 75 -24 20 -52 44 -62
53 -9 9 -20 14 -23 11 -3 -4 -6 -2 -6 4 0 6 -35 39 -78 74 -42 35 -79 66 -82
69 -3 3 -45 39 -95 80 -49 41 -99 82 -110 92 -23 20 -52 45 -114 96 -24 21
-83 70 -130 111 -47 40 -102 85 -121 100 -19 14 -44 35 -55 46 -11 11 -87 76
-170 144 -82 68 -154 129 -160 135 -5 6 -26 23 -45 38 -19 15 -55 45 -80 67
-25 23 -49 41 -55 41 -7 0 -10 -451 -9 -1334 1 -1317 1 -1333 -19 -1346 -11
-6 -36 -21 -56 -32 -20 -12 -49 -29 -66 -39 -16 -10 -41 -24 -55 -32 -14 -8
-81 -47 -150 -87 -68 -40 -140 -82 -160 -93 -19 -11 -47 -27 -62 -36 -34 -20
-288 -169 -342 -200 -22 -13 -147 -85 -276 -161 -129 -76 -251 -147 -270 -157
-19 -11 -87 -51 -150 -88 -63 -37 -130 -76 -147 -86 -18 -11 -48 -27 -65 -38
-18 -10 -84 -48 -147 -85 -62 -36 -118 -66 -122 -66 -5 0 -9 -4 -9 -10 0 -5
-4 -10 -9 -10 -5 0 -49 -24 -98 -52 -48 -29 -100 -59 -116 -68 -98 -54 -267
-156 -267 -161 0 -3 10 -11 23 -18 12 -6 31 -17 42 -24 23 -14 112 -66 500
-295 154 -90 289 -170 300 -177 11 -7 22 -12 25 -11 3 1 12 -5 20 -12 8 -8 32
-23 52 -35 134 -79 306 -179 323 -190 85 -53 126 -77 129 -77 6 0 220 -128
233 -140 7 -5 15 -10 18 -10 11 0 150 -84 153 -92 2 -5 9 -8 15 -8 7 0 40 -18
75 -40 34 -22 65 -40 67 -40 2 0 40 -22 85 -50 45 -27 86 -50 91 -50 5 0 9 -4
9 -10 0 -5 5 -10 11 -10 7 0 40 -18 75 -40 35 -22 68 -40 74 -40 5 0 10 -4 10
-10 0 -5 4 -10 9 -10 6 0 61 -30 123 -67 l113 -68 2 -720 c3 -627 10 -1847 12
-1913 1 -23 1 -22 29 5 15 15 47 44 72 63 52 40 75 60 140 115 26 22 67 56 91
75 24 19 100 82 170 140 70 58 171 141 225 185 53 44 108 89 120 100 12 12 37
32 55 45 18 14 51 42 73 62 23 21 44 38 47 38 3 0 17 10 31 23 41 37 80 70
133 112 27 22 61 50 75 62 36 30 159 132 210 173 24 19 48 40 54 45 6 6 101
84 211 175 110 91 209 172 220 182 11 9 67 55 125 103 58 47 115 95 126 105
21 17 78 18 1430 18 775 1 1416 -1 1425 -4 13 -4 15 -148 15 -1418 l-1 -1415
-37 -48 c-21 -26 -50 -62 -65 -79 -16 -17 -41 -49 -58 -70 -16 -21 -39 -48
-50 -61 -11 -12 -33 -39 -50 -59 -16 -20 -35 -41 -40 -48 -6 -6 -30 -36 -55
-66 -25 -30 -49 -60 -55 -66 -5 -6 -28 -33 -50 -59 -22 -26 -47 -56 -55 -65
-8 -10 -28 -35 -45 -56 -16 -20 -35 -42 -40 -48 -6 -6 -30 -36 -55 -66 -25
-30 -49 -60 -55 -66 -5 -6 -26 -30 -45 -54 -19 -24 -40 -48 -45 -54 -6 -6 -30
-36 -55 -66 -25 -30 -47 -57 -50 -60 -3 -3 -23 -27 -45 -55 -22 -27 -47 -57
-55 -65 -8 -9 -31 -36 -50 -60 -19 -24 -44 -54 -55 -66 -11 -12 -27 -31 -35
-41 -54 -66 -156 -190 -165 -199 -5 -6 -26 -30 -45 -54 -19 -24 -48 -57 -63
-74 -16 -17 -42 -50 -59 -73 -17 -24 -35 -43 -40 -43 -4 0 -8 -7 -8 -15 0 -8
-4 -15 -8 -15 -4 0 -40 -39 -79 -87 -39 -49 -81 -99 -93 -113 -11 -14 -29 -34
-38 -45 -9 -12 -38 -46 -64 -77 -27 -31 -48 -58 -48 -60 0 -1 594 -3 1320 -3
l1321 0 69 -118 c39 -65 70 -122 70 -127 0 -6 3 -10 8 -10 4 0 13 -15 21 -32
8 -18 17 -35 21 -38 6 -5 18 -25 85 -145 12 -22 59 -102 104 -178 44 -76 81
-142 81 -147 0 -6 5 -10 10 -10 6 0 10 -4 10 -9 0 -5 37 -71 81 -147 45 -77
93 -159 107 -184 13 -25 28 -49 32 -55 4 -5 19 -30 32 -55 29 -52 122 -211
149 -255 10 -16 25 -43 34 -60 8 -16 46 -82 85 -145 38 -63 77 -132 86 -152 9
-21 20 -38 25 -38 5 0 9 -4 9 -10 0 -5 18 -39 40 -75 22 -36 40 -67 40 -69 0
-4 70 -122 98 -166 9 -14 16 -28 15 -32 -2 -3 4 -12 12 -18 8 -7 15 -16 15
-20 0 -8 133 -238 148 -256 5 -6 13 -20 16 -32 4 -12 11 -22 15 -22 7 0 74
109 123 201 8 13 26 43 41 66 15 24 27 45 27 48 0 3 12 24 26 47 43 68 85 142
91 161 3 9 9 17 14 17 5 0 9 5 9 10 0 6 11 29 26 51 31 50 62 104 82 144 9 17
18 32 22 35 3 3 52 86 109 185 57 99 130 225 162 280 33 55 65 111 72 125 6
14 14 27 18 30 3 3 17 25 29 50 12 25 25 47 29 50 3 3 15 21 25 40 60 110 152
265 158 268 5 2 8 7 8 12 0 11 278 490 298 513 8 9 12 17 9 17 -4 0 9 25 28
55 19 30 35 56 35 59 0 3 16 30 35 60 19 30 35 59 35 64 0 5 8 12 18 14 9 2
610 4 1335 3 1000 0 1317 3 1317 12 0 6 -3 13 -7 15 -7 2 -122 137 -173 201
-8 11 -20 24 -25 31 -6 6 -33 38 -60 71 -28 33 -55 65 -61 71 -5 6 -26 31 -45
54 -18 23 -39 47 -44 54 -6 6 -46 54 -90 106 -44 52 -82 97 -85 100 -3 3 -25
30 -50 60 -25 30 -50 60 -55 66 -6 6 -27 30 -46 54 -18 23 -46 56 -62 73 -15
18 -37 45 -50 61 -12 15 -31 38 -42 50 -11 11 -40 46 -65 76 -46 56 -80 96
-115 136 -11 12 -29 34 -39 49 -11 14 -33 41 -50 59 -33 35 -45 49 -116 136
-25 30 -47 57 -50 60 -6 6 -112 131 -125 148 -5 7 -17 21 -25 30 -9 9 -49 57
-90 107 -107 128 -107 127 -131 155 -11 14 -38 45 -58 69 -20 25 -46 56 -58
69 l-23 25 0 1442 0 1442 1403 0 c1521 1 1415 4 1473 -51 12 -12 30 -28 41
-36 27 -21 197 -164 203 -170 3 -3 88 -75 190 -160 102 -84 187 -156 190 -160
3 -3 25 -21 50 -40 24 -19 52 -42 60 -50 9 -8 38 -33 65 -55 27 -22 80 -67
119 -100 39 -33 96 -81 126 -105 30 -25 60 -49 66 -55 6 -5 30 -26 53 -45 23
-19 55 -46 71 -60 15 -14 36 -32 47 -40 24 -20 191 -159 221 -185 43 -38 58
-50 107 -90 28 -21 52 -42 55 -45 3 -3 32 -27 65 -55 33 -27 71 -60 85 -72 14
-12 36 -31 50 -42 14 -11 41 -34 60 -50 127 -108 253 -211 259 -211 3 0 6 599
5 1330 l-1 1331 58 34 c31 19 61 35 67 35 6 0 12 4 14 8 2 4 50 34 108 67 58
33 111 65 118 72 7 7 18 13 23 13 5 0 33 16 63 35 30 19 57 35 59 35 2 0 57
32 121 70 65 39 121 70 127 70 5 0 9 5 9 10 0 6 5 10 11 10 8 0 107 56 224
127 11 7 31 18 45 25 14 7 60 34 102 60 43 27 82 48 88 48 5 0 10 4 10 8 0 4
12 13 28 19 15 7 47 24 72 39 238 141 313 184 320 184 5 0 15 6 22 14 8 7 32
23 54 35 21 12 46 26 54 31 31 21 342 200 347 200 2 0 24 14 49 30 24 17 44
27 44 23 0 -4 4 -3 8 2 9 14 268 165 282 165 5 0 10 4 10 8 0 5 18 17 41 27
l41 19 -24 18 c-13 9 -26 18 -31 18 -4 0 -40 20 -80 44 -39 24 -87 52 -106 62
-18 11 -41 24 -50 29 -9 6 -61 36 -116 68 -55 32 -107 62 -115 67 -8 5 -80 47
-160 94 -80 46 -165 96 -190 110 -25 15 -53 29 -62 33 -10 3 -18 9 -18 14 0 5
-4 9 -8 9 -8 0 -103 54 -362 205 -30 18 -111 65 -180 105 -69 40 -141 82 -160
93 -19 11 -48 27 -63 36 -16 9 -36 21 -45 26 -10 6 -55 32 -102 60 -47 27 -94
55 -105 62 -11 7 -26 15 -34 19 -7 4 -117 68 -245 142 -127 74 -251 146 -276
160 -25 14 -53 30 -62 36 -17 10 -17 13 -19 426 0 19 0 344 0 485 0 11 0 119
0 240 0 121 0 229 0 240 0 11 0 119 0 240 0 121 0 229 0 240 1 11 1 67 0 125
0 58 0 112 0 120 1 8 1 80 1 160 0 80 0 152 0 160 2 100 0 151 -5 160 -3 5 -2
10 2 10 12 0 9 73 -3 77 -6 2 -21 -7 -34 -19 -13 -12 -71 -63 -129 -112 -59
-49 -107 -93 -109 -97 -2 -5 -8 -9 -13 -9 -5 0 -17 -8 -28 -17 -41 -39 -83
-75 -246 -214 -194 -164 -201 -170 -235 -199 -14 -12 -45 -39 -70 -60 -25 -21
-56 -48 -70 -60 -14 -12 -45 -38 -69 -58 -24 -21 -53 -46 -66 -57 -12 -11 -39
-33 -60 -50 -21 -16 -50 -41 -64 -55 -14 -14 -39 -35 -54 -47 -27 -21 -94 -77
-155 -132 -15 -12 -47 -39 -72 -60 -24 -20 -54 -47 -67 -60 -13 -13 -23 -21
-23 -18 0 3 -13 -7 -28 -21 -31 -30 -73 -65 -146 -127 -26 -22 -58 -49 -70
-60 -12 -11 -42 -36 -66 -55 -24 -19 -56 -47 -73 -61 -16 -15 -36 -33 -45 -40
-9 -7 -36 -31 -61 -52 -25 -22 -68 -58 -95 -80 -27 -23 -54 -46 -60 -52 -7 -7
-495 -10 -1426 -9 -778 1 -1420 2 -1426 3 -8 1 -11 384 -12 1434 0 1503 -1
1446 41 1489 12 12 206 242 372 442 22 27 49 58 60 71 11 12 36 41 55 65 19
23 47 57 61 74 15 17 46 54 69 81 23 28 52 61 64 75 11 14 41 50 66 80 25 30
47 57 50 60 3 3 39 46 80 95 41 50 80 95 85 101 26 29 65 75 121 146 34 42 65
74 68 71 3 -4 6 1 6 10 0 8 3 17 8 19 4 2 63 71 132 153 68 83 127 152 130
155 3 3 27 32 54 65 28 33 57 68 65 77 9 9 21 23 26 30 14 17 121 147 149 178
42 49 86 105 86 110 0 3 -588 6 -1307 5 -720 0 -1320 2 -1336 5 -28 5 -25 0
-218 338 -11 17 -28 48 -39 67 -11 19 -29 51 -40 70 -11 19 -28 50 -39 68 -10
17 -39 67 -65 110 -25 43 -46 80 -46 82 0 1 -38 68 -85 149 -47 80 -85 150
-85 156 0 5 -4 10 -10 10 -5 0 -10 4 -10 10 0 5 -14 33 -31 62 -18 29 -40 68
-50 86 -33 57 -61 106 -96 167 -19 33 -38 67 -43 75 -9 14 -36 61 -92 161 -14
24 -43 73 -63 109 -21 36 -55 94 -75 130 -20 36 -69 121 -108 189 -40 68 -72
125 -72 127 0 2 -25 44 -55 95 -30 50 -55 93 -55 95 0 3 -11 21 -23 42 -26 41
-73 122 -94 164 -8 15 -18 30 -22 33 -5 2 -32 -37 -62 -88z m206 -1082 c76
-132 145 -254 155 -270 9 -17 49 -86 89 -153 39 -68 71 -125 71 -126 0 -3 61
-108 90 -156 18 -29 105 -185 109 -195 2 -5 7 -12 11 -15 7 -5 76 -126 100
-175 8 -16 17 -32 20 -35 4 -3 20 -30 37 -60 24 -44 271 -473 353 -615 9 -16
29 -50 43 -75 l25 -45 917 -2 c504 -1 919 -4 922 -7 3 -3 -1 -11 -8 -19 -8 -8
-28 -32 -46 -53 -17 -22 -39 -49 -50 -60 -10 -12 -31 -38 -48 -59 -16 -20 -35
-42 -40 -49 -13 -15 -105 -124 -130 -155 -11 -13 -27 -32 -35 -40 -8 -9 -31
-37 -50 -61 -19 -25 -47 -57 -62 -72 -16 -15 -28 -32 -28 -37 0 -5 -3 -11 -8
-13 -4 -2 -36 -39 -72 -83 -36 -44 -68 -82 -71 -85 -3 -3 -53 -61 -110 -130
-57 -69 -108 -130 -114 -136 -5 -6 -22 -27 -37 -46 -15 -19 -37 -46 -50 -60
-13 -14 -45 -53 -73 -86 -27 -34 -53 -62 -57 -62 -5 0 -8 -6 -8 -14 0 -8 -4
-16 -10 -18 -5 -1 -22 -19 -37 -39 -15 -20 -62 -76 -103 -125 l-74 -88 -1
-1754 c0 -965 3 -1758 6 -1764 4 -6 614 -9 1740 -9 954 0 1750 1 1769 1 25 0
46 10 71 33 41 37 122 107 159 137 14 12 41 35 61 53 20 18 49 43 65 56 49 41
257 221 297 257 21 19 40 34 42 34 2 0 15 10 28 23 12 12 52 47 87 77 35 30
84 73 110 95 25 22 68 59 95 82 90 76 202 172 219 188 6 6 74 64 151 130 77
65 142 122 145 125 3 3 23 20 46 37 l40 32 0 -931 c-1 -511 1 -933 4 -937 4
-6 231 -141 328 -196 10 -5 60 -35 112 -66 52 -32 214 -127 360 -213 146 -85
270 -159 275 -163 19 -15 90 -54 108 -60 9 -3 17 -9 17 -14 0 -5 4 -9 9 -9 10
0 365 -207 413 -241 15 -10 29 -19 32 -19 3 0 46 -25 97 -55 50 -30 94 -55 97
-55 3 0 13 -6 21 -14 16 -13 94 -59 138 -80 13 -6 23 -14 23 -18 0 -5 4 -8 10
-8 17 0 100 -55 100 -66 0 -7 -8 -14 -17 -17 -10 -3 -40 -19 -68 -35 -27 -16
-90 -53 -140 -82 -108 -63 -132 -77 -210 -120 -33 -19 -62 -37 -65 -40 -3 -3
-16 -11 -30 -18 -14 -6 -32 -16 -40 -22 -8 -5 -67 -40 -130 -76 -63 -37 -173
-100 -244 -141 -72 -42 -144 -83 -160 -93 -150 -85 -356 -206 -378 -222 -16
-11 -28 -16 -28 -12 0 4 -8 0 -17 -8 -10 -9 -36 -26 -58 -38 -22 -12 -95 -54
-162 -94 -68 -39 -135 -78 -150 -86 -16 -8 -71 -41 -123 -72 -52 -31 -107 -62
-122 -69 -26 -11 -27 -15 -25 -81 1 -38 -1 -72 -5 -74 -4 -2 -5 -14 -2 -27 8
-34 8 -166 1 -173 -4 -4 -4 -11 0 -17 3 -5 5 -53 4 -106 -2 -123 -2 -111 2
-149 2 -17 0 -37 -4 -43 -4 -7 -3 -25 1 -40 5 -18 5 -29 -1 -29 -6 0 -6 -7 -2
-17 5 -10 7 -31 6 -48 -4 -40 -4 -33 -2 -175 2 -70 0 -130 -3 -135 -3 -6 -4
-19 -1 -30 6 -34 7 -165 0 -171 -4 -4 -4 -11 -1 -16 5 -8 7 -345 2 -453 0 -16
0 -34 2 -40 1 -5 2 -22 1 -37 l-1 -28 -22 19 c-13 11 -34 30 -48 41 -14 12
-47 41 -74 64 -26 22 -61 52 -76 66 -15 14 -45 40 -68 58 -23 19 -52 44 -65
55 -13 12 -47 42 -77 67 -30 25 -64 54 -76 65 -12 11 -46 40 -74 64 -29 25
-58 50 -64 55 -6 6 -90 78 -186 161 -228 195 -231 197 -249 215 -9 8 -30 25
-46 38 -17 13 -46 38 -65 55 -19 18 -62 55 -95 82 -32 28 -66 57 -75 65 -9 8
-43 38 -75 65 -33 28 -79 68 -103 89 l-43 40 -1756 0 c-965 1 -1759 -2 -1765
-5 -6 -4 -10 -627 -9 -1778 l0 -1772 53 -62 c29 -34 56 -64 59 -67 5 -4 37
-41 154 -179 11 -12 29 -33 40 -45 11 -12 38 -44 60 -71 22 -26 47 -55 56 -64
8 -9 71 -81 139 -161 69 -80 129 -150 135 -156 5 -6 28 -32 50 -59 22 -26 51
-60 65 -75 14 -15 45 -52 70 -81 25 -29 54 -63 65 -75 11 -12 40 -46 65 -75
64 -75 173 -202 185 -215 6 -6 33 -37 60 -69 28 -32 60 -70 72 -84 l23 -26
-928 -5 c-510 -3 -928 -6 -929 -8 -2 -1 -3 -6 -3 -12 0 -5 -14 -33 -32 -62
-17 -29 -46 -78 -63 -108 -18 -30 -62 -107 -100 -170 -37 -63 -75 -128 -85
-145 -9 -16 -79 -136 -155 -265 -76 -129 -159 -270 -184 -313 -25 -43 -51 -86
-56 -95 -6 -9 -28 -48 -50 -85 -22 -38 -50 -85 -62 -105 -12 -21 -27 -46 -33
-57 -6 -11 -16 -29 -23 -40 -7 -11 -27 -47 -46 -80 -19 -33 -39 -63 -44 -66
-5 -3 -9 -10 -9 -15 0 -5 -37 -72 -82 -149 -46 -77 -91 -156 -102 -175 -10
-19 -22 -36 -26 -38 -5 -2 -8 -8 -8 -13 0 -12 -89 -154 -96 -154 -6 0 -46 63
-61 95 -4 8 -21 38 -39 66 -18 28 -41 66 -52 85 -10 19 -94 159 -186 312 -91
153 -166 283 -166 288 0 5 -4 9 -10 9 -5 0 -10 5 -10 11 0 6 -13 31 -30 56
-16 24 -30 46 -30 49 0 3 -16 30 -35 60 -19 30 -35 56 -35 57 0 5 -337 570
-347 582 -5 6 -19 31 -33 58 -14 26 -28 47 -32 47 -5 0 -8 5 -8 10 0 6 -25 52
-55 102 -30 50 -55 92 -55 94 0 2 -16 28 -35 58 -19 30 -35 58 -35 61 0 4 -6
13 -14 21 -8 7 -16 18 -18 24 -2 6 -311 10 -915 10 -540 0 -913 4 -913 9 0 5
12 19 26 30 15 12 24 21 20 21 -4 0 -1 6 6 14 8 7 34 37 59 66 24 29 49 58 54
64 6 6 33 38 60 71 28 33 55 65 60 71 12 13 30 35 109 129 33 39 62 72 65 75
4 3 22 25 41 50 19 24 42 52 50 60 8 9 33 38 55 64 22 27 45 54 50 60 6 6 46
54 90 106 44 52 90 106 102 120 58 68 281 332 333 395 19 23 58 68 85 100 28
32 56 67 63 77 11 15 14 334 14 1779 0 968 -3 1763 -5 1766 -3 2 -798 4 -1767
4 l-1761 0 -47 -37 c-26 -21 -58 -48 -72 -60 -28 -25 -93 -80 -164 -139 -27
-22 -58 -49 -70 -60 -13 -11 -45 -38 -71 -60 -27 -22 -70 -58 -96 -80 -25 -22
-68 -59 -95 -81 -118 -99 -283 -238 -324 -274 -25 -21 -64 -54 -87 -73 -23
-19 -48 -41 -56 -48 -7 -8 -28 -25 -46 -39 -17 -14 -46 -38 -64 -53 -18 -16
-49 -43 -71 -60 -21 -18 -46 -39 -55 -47 -9 -9 -56 -49 -106 -90 -49 -41 -103
-87 -120 -102 -16 -16 -33 -28 -36 -28 -4 0 -7 404 -8 898 0 493 0 911 -1 928
0 25 -6 33 -35 44 -19 8 -35 17 -35 22 0 4 -6 8 -14 8 -7 0 -19 7 -26 15 -7 9
-15 14 -17 11 -2 -2 -43 20 -91 48 -90 54 -815 475 -880 512 -20 11 -152 87
-292 169 -140 81 -264 153 -275 159 -129 70 -483 281 -480 286 2 4 89 56 192
116 103 59 189 112 191 116 2 4 8 8 13 8 5 0 76 39 157 86 81 48 161 95 177
104 17 9 77 45 133 79 57 33 106 61 109 61 3 0 17 8 31 19 15 10 47 29 72 43
43 24 378 218 410 238 23 14 161 95 200 118 19 11 87 50 150 87 63 37 129 76
147 86 17 10 50 29 72 43 22 15 44 26 48 26 21 1 53 41 53 66 1 33 1 251 1
274 0 8 0 49 0 90 0 41 0 82 0 90 0 8 0 58 0 110 0 52 0 100 0 105 -2 39 -3
170 -2 220 1 64 2 183 2 225 0 14 0 79 0 145 0 66 0 127 0 135 0 8 0 62 0 120
0 58 0 110 0 115 -2 72 -3 155 -2 173 1 24 16 29 35 10 22 -21 78 -70 141
-123 33 -27 65 -54 71 -60 6 -5 33 -29 60 -52 27 -23 60 -51 74 -63 14 -12 45
-38 69 -58 24 -21 53 -46 65 -57 12 -11 44 -39 72 -62 27 -23 60 -51 74 -63
14 -12 47 -40 75 -63 27 -23 59 -51 70 -62 12 -11 41 -36 66 -56 24 -20 55
-46 69 -58 14 -12 45 -38 69 -59 24 -20 60 -52 79 -69 18 -18 37 -33 42 -33 5
0 10 -3 12 -8 2 -4 30 -30 63 -57 33 -28 69 -59 81 -70 11 -11 40 -36 63 -55
24 -19 48 -40 54 -46 117 -106 182 -154 210 -154 251 -4 3479 0 3484 3 5 3 8
800 8 1772 l0 1766 -54 64 c-52 63 -71 85 -114 135 -12 14 -56 66 -97 115 -42
50 -87 103 -100 119 -14 16 -52 61 -85 100 -33 39 -94 112 -135 161 -41 50
-77 92 -80 95 -3 3 -30 34 -60 70 -30 36 -59 70 -65 76 -5 7 -17 20 -25 30
-47 58 -285 341 -294 349 -6 6 -27 30 -46 55 -19 24 -52 63 -73 85 -21 22 -45
52 -55 68 -9 15 -20 27 -24 27 -4 0 -12 9 -18 19 -10 19 -6 20 132 20 79 0
148 0 153 1 12 2 91 1 152 -2 24 -1 45 0 47 3 2 2 48 2 101 -1 55 -3 100 -1
106 5 6 5 9 4 9 -4 0 -10 3 -11 14 -2 10 8 16 9 21 1 3 -6 10 -8 14 -6 7 5 90
7 166 5 22 0 45 0 50 1 6 1 51 1 100 0 109 -2 167 -2 180 0 9 1 53 1 150 -1
22 0 45 0 50 1 6 1 51 1 100 0 109 -2 167 -2 180 0 27 4 117 1 122 -4 3 -3 12
5 19 19 25 49 49 90 60 105 7 8 24 38 38 65 15 28 31 57 37 65 10 16 246 428
284 497 13 22 35 59 49 82 14 22 26 43 26 46 0 3 20 38 44 78 24 39 60 104 81
142 21 39 41 72 45 75 3 3 14 21 23 40 10 19 26 49 36 65 21 34 203 350 236
410 13 22 56 96 95 165 109 188 110 190 148 258 19 35 38 60 42 55 4 -4 70
-116 145 -248z"/>
<path d="M9984 18702 c-65 -47 -139 -125 -172 -181 -15 -26 -28 -49 -28 -53
-1 -5 -2 -9 -4 -10 -5 -7 -10 -47 -12 -88 -2 -60 34 -140 83 -185 22 -19 39
-38 39 -42 0 -5 -20 -20 -44 -36 -24 -15 -63 -49 -87 -76 -58 -65 -62 -70 -81
-116 -84 -194 -8 -404 236 -647 54 -54 101 -98 105 -98 4 0 38 33 77 73 216
227 286 350 287 507 2 160 -57 257 -233 380 -21 15 -20 16 38 57 73 51 97 96
88 161 -5 39 -49 148 -66 162 -3 3 -22 28 -42 57 -20 28 -44 60 -52 70 -8 10
-30 37 -49 59 l-33 42 -50 -36z m54 -799 c15 -16 38 -48 51 -72 19 -35 23 -53
18 -96 -5 -49 -46 -144 -82 -190 -16 -20 -16 -20 -35 5 -29 38 -72 129 -77
164 -3 17 -5 33 -6 36 -1 3 5 26 12 52 11 40 72 128 88 128 2 0 17 -12 31 -27z"/>
<path d="M9310 17296 c-94 -24 -163 -88 -195 -181 -16 -49 -22 -145 -10 -165
6 -9 75 34 83 52 5 10 102 59 102 52 0 -4 6 -2 13 4 18 15 87 8 129 -12 117
-56 153 -172 101 -330 -14 -42 -31 -76 -37 -76 -6 0 -23 6 -38 14 -84 44 -215
78 -358 92 -55 5 -301 4 -345 -1 -101 -14 -182 -37 -260 -77 -64 -32 -155 -94
-168 -114 -14 -23 -132 -106 -182 -129 -68 -31 -135 -56 -135 -50 0 2 -11 0
-25 -5 -77 -29 -192 -30 -239 -1 -87 54 -97 202 -13 216 36 6 46 4 187 -24
108 -22 109 -22 116 4 5 21 -7 38 -87 118 -106 106 -142 129 -206 129 -94 0
-219 -76 -257 -156 -34 -72 -8 -210 60 -312 41 -62 84 -96 162 -131 52 -23 66
-25 152 -20 52 3 105 7 116 10 12 3 39 8 60 11 22 4 46 8 54 11 8 2 26 6 40 9
14 2 42 7 63 11 l38 7 -7 -48 c-17 -111 -7 -255 22 -343 28 -83 103 -224 133
-251 4 -3 19 -23 36 -45 16 -22 69 -80 117 -130 49 -49 88 -93 88 -97 0 -4
-16 -42 -35 -83 -37 -78 -91 -232 -99 -282 -2 -16 -5 -28 -6 -28 -5 0 -22
-154 -24 -224 -2 -56 8 -178 18 -235 9 -49 39 -162 48 -179 5 -10 11 -27 13
-38 5 -27 72 -166 96 -200 11 -16 17 -29 12 -29 -4 0 -3 -4 2 -8 6 -4 24 -27
40 -52 16 -25 32 -47 35 -50 3 -3 18 -23 35 -45 44 -59 43 -58 141 -163 l91
-96 -57 -66 c-87 -102 -137 -200 -155 -305 -7 -45 -8 -173 0 -185 2 -4 6 -23
9 -43 2 -19 19 -73 38 -119 l33 -84 -81 -1 c-106 -1 -173 -23 -228 -76 -52
-50 -71 -85 -83 -153 -16 -85 6 -151 95 -289 75 -118 139 -163 243 -172 108
-10 192 27 246 108 49 74 39 144 -28 210 -89 87 -185 95 -244 20 -53 -67 -61
-74 -83 -67 -34 11 -91 75 -97 110 -18 94 37 167 128 169 32 1 125 -9 182 -18
98 -18 338 -100 374 -128 7 -6 19 -12 27 -13 7 -1 27 -12 43 -23 16 -12 32
-21 36 -21 3 0 21 -11 39 -25 18 -14 36 -25 41 -25 15 0 184 -137 269 -218
l49 -46 -29 -7 c-26 -6 -258 -57 -294 -64 -8 -2 -37 -11 -65 -20 -27 -10 -54
-18 -60 -19 -17 -3 -119 -38 -130 -45 -5 -3 -14 -6 -20 -6 -24 -2 -210 -89
-318 -149 -222 -123 -467 -330 -598 -504 -24 -32 -48 -61 -53 -67 -40 -38
-245 -397 -243 -425 0 -3 -9 -23 -20 -45 -11 -22 -39 -94 -61 -160 -36 -104
-49 -146 -78 -260 -3 -11 -9 -37 -14 -58 -4 -21 -10 -40 -13 -43 -11 -11 -140
146 -219 268 -109 166 -189 362 -223 543 -36 190 -22 268 53 298 75 30 153 4
192 -65 l22 -39 -31 -30 c-17 -16 -34 -29 -38 -29 -5 0 -18 -16 -31 -36 -27
-41 -30 -94 -10 -142 17 -40 84 -112 104 -112 8 0 14 -4 14 -8 0 -15 79 -13
117 3 57 24 110 87 129 153 40 135 1 230 -132 330 -104 78 -204 124 -268 125
-64 0 -123 -18 -153 -46 -13 -11 -23 -17 -23 -13 0 14 -47 -49 -68 -89 -22
-42 -31 -86 -38 -175 -5 -67 -13 -76 -53 -56 -108 56 -293 79 -410 52 -87 -20
-176 -68 -262 -140 l-75 -63 -93 88 c-51 49 -95 89 -97 89 -4 0 -21 14 -72 58
-132 113 -426 255 -573 275 -18 3 -34 6 -34 7 0 1 -27 4 -60 7 -129 13 -298 4
-405 -22 -14 -3 -36 -8 -49 -11 -44 -9 -185 -61 -261 -95 l-74 -35 -106 106
c-58 58 -136 126 -175 151 -68 44 -176 99 -195 99 -5 0 -21 5 -37 11 -15 7
-35 13 -43 14 -8 1 -35 6 -60 10 -61 11 -241 13 -262 3 -25 -12 -29 4 -18 63
6 30 13 68 16 84 2 17 11 59 18 95 51 244 -31 415 -234 490 -109 41 -215 22
-291 -51 -108 -106 -107 -261 3 -366 36 -34 146 -103 165 -103 11 0 11 14 -2
93 -26 155 -26 164 11 213 63 85 206 10 207 -109 1 -23 -3 -67 -7 -97 -9 -62
-56 -213 -68 -218 -4 -2 -8 -9 -8 -16 0 -17 -59 -106 -97 -147 -18 -19 -42
-45 -54 -59 -30 -35 -89 -127 -89 -140 0 -5 -3 -10 -8 -10 -6 0 -44 -105 -44
-122 1 -4 -3 -21 -8 -38 -14 -50 -32 -361 -22 -383 2 -5 6 -38 8 -73 2 -36 6
-68 8 -73 3 -4 8 -21 10 -37 3 -16 8 -38 10 -49 7 -35 48 -149 67 -187 l19
-37 -76 -24 c-55 -18 -95 -24 -149 -23 -66 1 -77 4 -112 32 -85 69 -116 154
-87 237 8 23 37 72 64 109 28 38 50 71 50 75 0 3 -33 3 -74 1 -113 -7 -211
-63 -263 -148 -12 -19 -22 -38 -22 -42 -1 -5 -2 -9 -2 -10 -1 -2 -3 -32 -4
-68 -5 -132 53 -246 163 -322 49 -34 87 -47 152 -54 59 -7 58 -7 110 1 25 3
56 8 70 10 14 1 46 8 73 14 26 6 64 14 85 17 20 3 56 10 79 15 23 5 50 6 60 2
15 -5 125 -87 159 -118 6 -5 66 -53 132 -105 67 -52 120 -99 118 -105 -4 -15
-359 -300 -404 -324 -26 -14 -52 -10 -222 29 -206 48 -294 44 -395 -15 -72
-42 -145 -128 -145 -170 0 -8 -5 -15 -12 -15 -6 0 -9 -2 -6 -5 3 -3 0 -29 -7
-58 -49 -211 110 -381 333 -355 12 1 22 4 22 6 0 1 -18 27 -40 57 -89 121
-105 189 -62 271 58 113 176 150 322 99 25 -8 53 -18 62 -21 10 -4 18 -9 18
-13 0 -4 -17 -49 -38 -101 -22 -52 -39 -102 -40 -110 0 -8 -5 -40 -12 -70 -45
-216 -19 -594 48 -697 8 -13 12 -23 8 -23 -11 0 52 -91 108 -154 83 -93 104
-123 140 -201 43 -92 46 -100 71 -225 24 -119 2 -186 -75 -224 -48 -24 -49
-24 -95 -13 -51 13 -68 65 -51 163 3 16 10 60 16 98 6 38 13 73 16 78 3 4 -2
9 -10 9 -9 1 -20 2 -24 3 -10 1 -84 -60 -152 -124 -50 -49 -76 -90 -84 -134
-6 -33 20 -135 39 -156 8 -9 15 -21 15 -27 0 -19 84 -99 118 -113 56 -22 168
-4 252 41 99 53 168 133 191 221 13 50 18 156 8 178 -4 8 -9 33 -13 55 -8 59
-22 132 -39 202 -8 34 -12 64 -10 67 3 2 21 -3 41 -12 56 -24 217 -25 295 -1
34 10 71 23 82 28 11 5 47 22 80 37 33 16 62 32 63 36 2 4 8 8 13 8 24 0 143
94 227 179 90 90 95 93 131 88 20 -2 62 -16 93 -30 70 -32 194 -74 273 -92
146 -34 360 -38 485 -10 14 3 36 8 50 11 143 30 393 154 525 261 61 50 129
109 170 148 23 22 55 52 72 68 l29 27 55 -49 c30 -28 57 -50 60 -51 3 0 19
-11 34 -24 33 -29 93 -59 149 -77 38 -11 224 -8 286 6 14 3 47 8 74 11 27 3
59 9 70 14 12 4 32 7 45 6 23 -1 24 -4 27 -80 1 -43 7 -83 13 -89 6 -6 11 -18
11 -26 1 -48 113 -151 182 -167 43 -11 117 -4 168 15 50 19 182 98 188 113 2
5 8 8 13 8 14 0 67 61 89 102 26 48 34 111 26 180 -12 98 -112 197 -198 198
-49 0 -77 -12 -115 -49 -59 -56 -89 -139 -71 -192 10 -28 89 -109 107 -109 24
0 3 -49 -39 -90 -36 -37 -53 -46 -84 -48 -67 -5 -113 22 -138 78 -13 31 -18
157 -7 188 5 13 11 37 14 54 9 50 42 164 54 187 7 12 9 21 7 21 -6 0 51 135
87 207 39 77 126 200 213 303 67 80 87 96 90 72 0 -4 4 -25 9 -47 5 -22 10
-42 10 -45 1 -3 4 -16 8 -30 4 -14 13 -43 19 -65 5 -22 13 -47 16 -55 3 -8 6
-19 7 -25 6 -24 68 -194 88 -240 128 -294 274 -514 472 -709 101 -100 254
-221 342 -272 26 -16 50 -32 51 -36 2 -4 8 -8 14 -8 5 0 23 -9 39 -21 16 -11
29 -17 29 -14 0 3 12 -2 28 -13 61 -42 388 -173 467 -188 11 -2 70 -16 130
-32 61 -15 145 -34 188 -42 l79 -13 -34 -31 c-19 -17 -56 -50 -82 -73 -26 -24
-51 -43 -57 -43 -5 0 -9 -4 -9 -8 0 -5 -22 -24 -50 -43 -27 -19 -50 -37 -50
-41 0 -5 -7 -8 -15 -8 -8 0 -15 -4 -15 -10 0 -5 -4 -10 -9 -10 -6 0 -29 -13
-53 -29 -37 -25 -183 -103 -198 -107 -3 0 -18 -6 -35 -13 -60 -26 -142 -52
-220 -71 -73 -17 -100 -22 -205 -35 -76 -9 -132 23 -160 92 -24 63 6 128 83
178 l28 18 57 -62 c32 -33 66 -62 77 -62 11 -1 27 -2 35 -3 8 -1 27 4 43 12
15 7 27 10 27 6 0 -14 102 81 116 107 8 16 12 29 10 29 -3 0 -1 11 4 25 5 14
5 27 0 30 -4 3 -11 19 -15 36 -14 61 -113 138 -185 144 -17 1 -33 4 -35 7 -10
10 -91 -4 -135 -23 -58 -26 -91 -58 -149 -144 -110 -163 -131 -259 -77 -368
50 -104 137 -152 277 -156 46 -1 85 -3 86 -5 2 -1 -6 -26 -17 -56 -66 -180
-81 -339 -42 -440 3 -8 6 -17 6 -20 2 -8 79 -144 88 -155 5 -5 30 -39 56 -75
l48 -65 -86 -86 c-98 -98 -135 -142 -206 -245 -48 -69 -133 -219 -124 -219 2
0 -3 -13 -12 -30 -36 -65 -81 -232 -94 -346 -12 -106 -5 -342 12 -370 2 -3 6
-21 9 -40 10 -56 61 -201 102 -290 l39 -82 -86 -86 c-89 -89 -191 -216 -213
-263 -6 -16 -15 -28 -18 -28 -5 0 -48 -88 -54 -110 -1 -3 -5 -18 -9 -35 -4
-16 -10 -37 -13 -45 -17 -47 -22 -195 -9 -292 7 -60 6 -64 -22 -49 -9 5 -30
11 -47 14 -16 3 -37 8 -45 11 -8 3 -26 8 -40 10 -14 3 -58 11 -97 19 -40 8
-70 11 -67 6 3 -5 -6 -5 -19 0 -14 5 -33 8 -43 6 -11 -3 -35 -6 -54 -9 -179
-22 -315 -184 -312 -372 0 -87 68 -181 160 -224 68 -32 156 -28 217 10 44 28
85 66 85 79 0 6 4 11 9 11 8 0 71 117 71 133 0 11 -116 0 -195 -18 -75 -18
-108 -12 -134 21 -41 52 -2 156 71 187 28 13 57 16 115 12 150 -8 279 -62 436
-182 49 -38 96 -73 105 -78 10 -6 35 -22 57 -35 65 -41 126 -65 192 -76 15 -2
42 -6 58 -9 148 -24 321 -25 475 -1 60 9 166 42 243 75 27 12 52 21 55 21 22
0 62 -153 58 -220 -4 -69 -26 -110 -79 -154 -52 -41 -105 -59 -153 -51 -41 6
-118 45 -155 78 -14 12 -35 27 -46 34 -20 11 -22 10 -25 -20 -3 -32 13 -124
27 -162 49 -122 180 -197 303 -173 66 13 62 12 115 37 71 35 142 104 173 169
25 53 26 62 21 162 -4 58 -9 116 -12 130 -3 14 -8 41 -10 60 -3 19 -7 44 -9
55 -2 11 -7 43 -10 70 -4 28 -9 60 -11 73 -2 13 -1 32 3 42 12 33 325 418 336
413 6 -2 36 -43 66 -91 30 -48 78 -111 107 -141 29 -29 53 -56 53 -61 0 -4 9
-15 19 -24 30 -27 61 -111 65 -174 2 -43 -5 -78 -26 -142 -53 -153 -53 -271
-2 -370 29 -57 56 -87 119 -130 67 -47 110 -67 169 -78 45 -10 58 -9 111 2 34
7 95 36 95 44 0 5 10 14 23 21 32 17 75 85 92 146 16 55 27 155 16 155 -3 0
-33 -16 -65 -36 -78 -47 -156 -86 -156 -78 0 4 -6 2 -12 -4 -32 -24 -107 2
-166 58 -41 39 -59 75 -64 125 -4 34 -1 57 16 130 9 37 30 95 35 95 8 -1 62
-14 136 -35 69 -19 86 -23 135 -31 19 -3 38 -8 41 -10 4 -2 25 -6 46 -9 22 -3
66 -8 99 -13 72 -10 249 -6 324 7 56 9 180 51 235 79 28 14 128 77 150 95 6 4
28 24 50 43 110 97 172 131 295 161 8 2 54 5 101 8 111 5 139 -8 195 -90 24
-34 24 -93 0 -110 -8 -6 -30 -10 -48 -8 -43 4 -299 5 -303 1 -4 -4 96 -118
159 -181 52 -52 81 -67 135 -71 63 -5 175 48 233 111 90 95 61 273 -67 408
-87 91 -167 114 -320 91 -49 -7 -71 -9 -170 -20 -27 -3 -71 -10 -98 -15 -53
-10 -60 -4 -51 36 48 219 7 367 -164 592 -75 98 -179 220 -204 239 -25 19 -23
39 16 123 50 108 122 349 115 385 -1 5 0 11 1 14 11 25 15 276 5 320 -3 14 -8
41 -11 60 -7 47 -42 171 -54 192 -6 10 -10 22 -10 28 0 10 -69 156 -82 175 -4
6 -36 53 -71 105 -67 102 -80 117 -199 243 l-77 82 42 75 c71 129 117 228 131
283 16 58 14 203 -3 277 -12 56 -19 93 -27 148 l-6 42 54 1 c46 1 70 3 136 11
6 1 12 5 12 9 0 4 10 9 23 12 35 9 96 74 122 129 33 72 30 162 -10 243 -15 33
-31 62 -35 65 -3 3 -21 29 -39 58 -62 98 -124 144 -212 157 -50 8 -49 8 -105
2 -131 -15 -226 -151 -180 -257 31 -73 117 -133 189 -132 45 1 99 37 129 88
24 40 34 42 78 12 52 -36 73 -71 74 -125 2 -116 -90 -157 -279 -123 -38 7 -76
13 -82 13 -7 0 -13 4 -13 9 0 5 -4 7 -9 4 -13 -8 -206 56 -278 92 -108 54
-175 95 -217 134 -11 10 -23 18 -27 18 -3 0 -53 37 -111 82 -98 77 -132 104
-183 142 -15 12 -16 16 -5 16 16 2 22 3 89 18 25 6 49 9 53 6 4 -3 8 0 8 7 0
7 3 10 6 7 3 -3 31 1 62 9 31 8 62 16 67 17 76 17 311 101 405 144 30 14 57
26 60 27 11 3 108 53 160 84 30 17 65 37 78 43 12 6 22 15 22 20 0 4 5 8 10 8
10 0 67 37 80 51 3 3 27 21 54 40 199 141 418 403 560 671 106 201 222 533
250 716 2 19 6 36 9 38 9 10 217 -233 217 -254 0 -6 4 -12 9 -14 14 -5 87
-130 132 -226 34 -70 95 -230 96 -252 1 -3 6 -23 11 -45 6 -22 14 -53 17 -70
3 -16 8 -46 12 -65 21 -113 4 -169 -67 -217 -58 -40 -120 -28 -178 36 -37 41
-35 59 12 109 64 67 86 137 55 173 -10 12 -19 25 -19 28 0 12 -57 69 -92 93
-34 23 -41 24 -83 15 -25 -6 -45 -14 -45 -19 0 -4 -6 -8 -14 -8 -14 0 -60 -42
-82 -75 -24 -38 -36 -160 -21 -228 9 -42 52 -111 88 -141 45 -38 227 -125 282
-135 55 -10 125 4 173 35 85 54 126 138 127 265 1 49 4 89 7 89 3 0 32 -10 65
-21 33 -11 68 -22 78 -25 195 -48 312 -42 437 21 46 23 192 131 198 147 8 18
29 4 106 -70 45 -43 101 -93 125 -112 24 -19 49 -40 55 -46 6 -6 32 -23 56
-39 25 -15 47 -31 50 -34 20 -24 224 -122 327 -156 75 -24 94 -29 158 -40 17
-3 44 -8 60 -11 17 -3 89 -6 160 -7 119 0 166 4 235 19 14 3 36 8 50 10 14 3
34 8 45 11 11 4 22 7 25 8 25 4 129 44 187 71 74 35 93 40 93 25 0 -5 9 -13
20 -16 11 -3 26 -12 32 -18 18 -17 166 -127 210 -157 21 -14 38 -28 38 -32 0
-5 4 -8 10 -8 5 0 31 -15 57 -34 72 -51 167 -97 242 -116 80 -21 209 -13 280
16 l34 14 -7 -32 c-4 -18 -10 -44 -12 -58 -3 -14 -15 -65 -27 -115 -14 -62
-21 -122 -21 -191 0 -94 2 -106 32 -167 39 -78 92 -128 179 -168 147 -68 240
-53 346 55 63 65 81 149 52 237 -23 68 -113 160 -202 205 l-62 32 4 -27 c2
-14 6 -37 9 -51 5 -23 10 -46 22 -110 2 -14 7 -51 10 -82 6 -53 5 -58 -21 -82
-32 -30 -76 -34 -122 -11 -94 47 -112 159 -57 355 16 55 63 152 77 158 4 2 7
9 7 16 0 7 8 21 18 32 144 161 217 278 236 381 27 140 38 390 23 513 -12 95
-36 198 -57 245 -14 30 -33 79 -34 87 -1 3 -4 10 -9 14 -15 15 -6 32 21 37 35
7 67 15 67 17 0 3 43 11 91 16 73 8 128 -10 175 -57 100 -100 97 -182 -13
-330 l-59 -81 63 5 c128 11 164 26 250 110 75 73 91 164 51 287 -36 110 -107
195 -200 237 -50 23 -64 25 -142 20 -47 -3 -95 -8 -106 -10 -11 -3 -40 -8 -65
-12 -25 -4 -54 -9 -65 -11 -167 -35 -185 -35 -242 6 -26 19 -50 36 -53 39 -3
4 -25 22 -50 41 -25 19 -52 40 -60 47 -8 7 -61 49 -118 94 l-103 82 33 20
c104 63 155 100 217 160 66 64 181 134 201 122 5 -3 11 -2 14 3 7 12 147 5
171 -9 6 -4 24 -10 40 -14 45 -12 45 -12 48 -14 10 -9 65 -14 133 -14 65 0 91
5 136 25 103 48 169 126 213 252 21 62 23 91 11 159 -20 118 -149 211 -300
216 l-67 2 27 -40 c15 -23 30 -41 34 -41 4 0 22 -29 40 -65 51 -101 41 -172
-39 -252 -48 -49 -100 -67 -175 -60 -57 5 -166 33 -179 46 -5 5 -1 26 8 47 27
64 56 165 81 284 18 89 29 416 14 425 -5 3 -7 12 -4 20 14 36 -70 257 -118
309 -10 11 -18 23 -18 27 0 4 -6 14 -12 21 -7 7 -25 29 -39 48 -15 19 -37 46
-49 60 -86 96 -148 251 -151 380 -3 103 -1 108 49 160 42 44 53 50 88 50 22 0
48 -6 57 -13 19 -13 19 -13 14 -209 -2 -76 -2 -138 0 -138 6 0 57 34 71 47 7
7 17 13 21 13 18 0 124 114 141 153 41 90 14 186 -78 281 -68 70 -155 87 -257
52 -5 -2 -13 -4 -18 -4 -27 -3 -132 -71 -165 -107 -64 -70 -85 -133 -87 -255
-1 -58 1 -109 5 -115 4 -5 10 -26 14 -45 7 -38 13 -67 22 -102 3 -13 7 -32 8
-43 2 -11 7 -33 11 -49 6 -21 5 -27 -3 -22 -28 17 -204 26 -282 14 -58 -9
-122 -28 -180 -55 -62 -28 -170 -93 -170 -102 0 -3 -20 -19 -43 -35 -24 -15
-85 -70 -136 -120 l-93 -92 -61 29 c-57 27 -211 87 -222 86 -3 0 -29 6 -58 14
-93 27 -250 45 -347 40 -269 -12 -455 -80 -724 -263 -58 -39 -135 -106 -235
-205 l-71 -69 -47 45 c-89 84 -181 137 -287 164 -112 28 -328 2 -411 -49 -11
-7 -30 -15 -41 -18 -20 -5 -21 -2 -20 55 5 144 -30 228 -125 303 -28 21 -110
37 -167 31 -100 -9 -294 -122 -350 -206 -82 -121 -56 -297 54 -370 86 -57 154
-53 216 11 93 97 100 191 21 258 -30 25 -63 69 -63 82 0 18 51 59 90 73 49 17
84 19 110 5 41 -22 89 -135 83 -198 -6 -70 -81 -332 -98 -344 -5 -4 -7 -8 -3
-8 17 0 -132 -290 -154 -298 -4 -2 -8 -8 -8 -13 0 -8 -79 -117 -105 -145 -5
-6 -37 -42 -70 -79 l-59 -67 -8 28 c-5 16 -10 40 -13 54 -24 124 -98 367 -143
470 -46 107 -116 247 -129 263 -9 9 -13 17 -9 17 5 0 -65 113 -96 155 -5 5
-25 33 -45 61 -52 71 -114 143 -183 211 -52 53 -78 76 -175 158 -44 38 -200
143 -259 176 -53 30 -183 94 -248 123 -21 9 -53 22 -70 30 -18 8 -85 31 -148
51 -63 20 -122 39 -130 42 -8 3 -22 7 -30 8 -25 5 -60 14 -83 21 -12 4 -31 9
-42 10 -26 4 -60 12 -60 14 0 1 -13 3 -30 5 -16 2 -40 7 -53 10 -22 5 -22 6
10 35 18 16 80 67 138 114 58 47 113 92 123 101 9 8 19 15 22 15 3 0 27 15 53
34 27 18 58 37 70 40 12 4 22 12 22 17 0 5 3 8 8 7 4 -1 35 12 70 30 51 25
112 50 142 57 3 1 12 4 20 8 56 23 191 55 260 62 14 2 25 4 25 5 0 7 88 7 116
0 38 -11 79 -40 79 -58 0 -6 5 -12 10 -14 6 -2 13 -24 16 -50 5 -42 3 -49 -30
-86 -20 -22 -50 -46 -68 -55 -31 -15 -31 -15 -65 25 -87 104 -148 109 -256 22
-65 -52 -84 -132 -48 -202 63 -122 231 -170 358 -103 44 24 93 66 93 80 0 5 4
11 8 13 15 6 87 122 114 184 54 125 22 249 -86 332 -42 32 -150 57 -263 61
-22 1 -22 1 8 72 41 102 51 143 55 235 6 165 -57 320 -185 453 l-41 43 103
101 c115 113 202 220 253 312 6 11 20 37 32 57 33 58 81 176 103 253 27 92 26
88 45 235 7 49 2 265 -5 265 -1 0 -4 18 -6 40 -3 22 -6 47 -8 55 -2 8 -7 29
-11 45 -17 70 -52 165 -97 261 -38 80 -27 106 92 223 26 26 70 75 98 111 28
36 56 71 62 78 5 6 7 12 3 12 -4 0 0 8 8 18 29 33 77 145 93 220 3 12 7 32 10
45 12 47 6 193 -10 270 -5 26 -4 27 22 21 16 -4 46 -13 67 -21 22 -7 41 -11
44 -8 3 3 11 0 19 -6 7 -6 13 -9 13 -6 0 3 24 -1 53 -9 33 -9 90 -13 157 -11
94 3 112 7 172 35 77 37 135 97 174 179 30 64 35 83 39 142 6 98 -52 180 -172
239 -77 38 -146 37 -200 -4 -82 -63 -204 -199 -196 -219 7 -20 14 -21 83 -11
161 24 228 26 251 7 28 -23 31 -86 7 -137 -39 -84 -106 -95 -313 -49 -36 8
-71 19 -80 25 -5 4 -21 11 -35 15 -27 8 -116 63 -140 86 -8 8 -37 32 -65 54
-27 22 -51 43 -53 48 -2 4 -10 7 -18 7 -8 0 -14 5 -14 10 0 6 -7 10 -15 10 -8
0 -15 4 -15 8 0 15 -153 80 -205 87 -27 4 -59 10 -70 12 -53 11 -309 17 -380
9 -50 -6 -129 -18 -145 -22 -63 -14 -139 -39 -198 -62 l-69 -29 -17 66 c-9 36
-19 82 -22 101 -3 19 -7 41 -9 47 -7 22 26 110 53 138 49 53 107 82 159 80 42
-1 109 -24 138 -47 58 -46 108 -79 113 -74 23 24 -21 196 -66 256 -24 32 -69
74 -82 76 -3 0 -18 7 -35 14 -44 20 -157 21 -213 3 -116 -39 -216 -143 -250
-260 -13 -45 -17 -132 -7 -170 10 -45 33 -142 40 -173 2 -8 8 -37 15 -64 19
-87 19 -103 -8 -143 -14 -21 -28 -40 -31 -43 -4 -3 -30 -36 -60 -74 -29 -37
-60 -77 -69 -88 -10 -11 -24 -28 -32 -38 -8 -10 -28 -35 -45 -56 -16 -21 -42
-52 -56 -68 l-25 -29 -34 54 c-54 85 -133 190 -185 244 -67 70 -98 141 -92
208 5 55 9 76 18 92 7 12 22 63 25 85 1 8 5 33 8 55 18 101 -1 240 -42 304
-82 129 -254 202 -392 167z m-121 -719 c14 -4 76 -32 138 -62 129 -63 126 -56
70 -149 -38 -65 -80 -130 -88 -136 -3 -3 -11 -15 -18 -28 -10 -19 -182 -233
-215 -268 -6 -6 -38 -42 -71 -80 -33 -37 -67 -75 -75 -84 -11 -12 -172 -209
-187 -229 -10 -15 -139 106 -195 184 -38 53 -82 143 -92 191 -22 99 -24 130
-11 127 14 -3 156 -52 180 -62 89 -39 108 -37 96 7 -13 45 -11 246 3 298 34
129 102 212 219 268 64 32 78 34 146 32 42 -2 87 -6 100 -9z m1895 -22 c112
-56 207 -176 224 -282 13 -77 6 -273 -11 -307 -8 -17 -6 -18 19 -12 16 4 79
25 141 47 121 42 134 45 128 27 -2 -7 -6 -33 -9 -58 -13 -103 -68 -220 -141
-301 -37 -41 -125 -114 -145 -121 -9 -3 -31 18 -58 56 -48 64 -51 68 -85 107
-12 14 -44 52 -72 84 -27 32 -59 68 -70 79 -11 12 -47 53 -80 91 -33 39 -62
72 -66 75 -3 3 -43 55 -88 115 -45 61 -85 115 -89 120 -13 17 -88 149 -94 166
-5 13 14 26 85 62 86 43 142 68 177 80 8 3 51 4 95 3 67 -1 89 -6 139 -31z
m-624 -282 c35 -77 88 -165 102 -171 5 -2 8 -8 8 -13 0 -14 46 -72 200 -252 8
-10 30 -35 49 -55 19 -20 61 -68 94 -107 33 -38 64 -71 69 -73 4 -2 8 -10 8
-17 0 -7 4 -15 8 -17 4 -1 30 -34 57 -72 35 -49 45 -71 36 -74 -36 -12 -276
-135 -279 -143 -2 -5 -9 -9 -16 -9 -26 0 -316 -204 -316 -222 0 -5 -5 -8 -10
-8 -16 0 -140 -127 -215 -220 -93 -115 -150 -206 -221 -350 l-31 -65 -8 35
c-17 82 -83 205 -166 310 -51 64 -319 335 -367 371 -18 13 -43 32 -55 42 -11
10 -37 28 -57 39 -19 12 -37 24 -40 27 -14 16 -303 161 -320 161 -5 0 -10 5
-10 10 0 6 -3 9 -7 8 -5 -1 -18 1 -30 6 l-23 7 27 42 c25 41 111 152 164 212
82 94 197 223 217 245 80 87 212 285 248 375 11 25 23 45 27 45 16 0 143 -144
194 -220 45 -67 93 -160 93 -181 0 -10 4 -20 9 -23 9 -6 20 -47 28 -107 3 -27
-3 -51 -27 -97 -17 -34 -33 -70 -35 -79 -2 -10 -8 -31 -15 -48 -23 -61 -33
-222 -18 -305 17 -97 75 -210 160 -314 l24 -28 52 75 c101 147 134 234 137
369 3 107 -17 203 -61 290 -57 112 -53 190 14 326 31 63 100 168 127 195 8 9
15 18 15 21 0 7 26 39 56 71 12 12 27 31 33 43 19 37 34 25 71 -55z m-1405
-1171 c165 -99 298 -197 394 -292 90 -88 161 -171 161 -188 0 -5 7 -15 15 -22
33 -27 111 -223 128 -320 3 -14 10 -43 16 -65 10 -38 13 -79 9 -118 -3 -33
-64 -85 -117 -101 -72 -21 -114 -11 -166 38 -68 66 -90 150 -63 241 6 22 11
43 10 48 -1 4 2 7 7 7 5 0 12 10 16 23 4 12 8 24 9 27 1 3 10 20 20 38 9 19
16 35 14 37 -5 5 -101 -41 -144 -69 -229 -151 -309 -304 -279 -531 4 -27 9
-53 12 -58 3 -5 -4 -4 -15 2 -31 17 -161 139 -154 145 3 3 0 6 -6 6 -22 0
-152 220 -177 299 -7 24 -7 24 51 17 33 -3 73 -8 89 -10 17 -3 53 -7 80 -9 28
-3 56 -6 63 -8 8 -2 19 4 25 14 10 15 5 25 -38 66 -27 26 -70 60 -95 76 -102
64 -205 211 -239 340 -24 91 -16 206 19 290 7 17 16 39 20 50 5 11 20 46 34
77 14 31 26 61 26 65 0 5 5 14 11 20 12 12 57 -11 264 -135z m2187 100 c43
-64 67 -118 89 -199 63 -230 -27 -500 -197 -591 -29 -15 -79 -51 -113 -81 -52
-45 -59 -56 -50 -72 9 -17 17 -19 77 -13 101 9 122 11 185 18 31 4 57 3 57 -2
0 -4 -13 -33 -29 -64 -16 -31 -27 -59 -24 -62 4 -3 1 -6 -5 -6 -6 0 -13 -9
-17 -20 -5 -17 -58 -99 -89 -138 -30 -38 -125 -131 -153 -151 l-32 -22 2 98
c6 252 -130 449 -376 542 -28 11 -28 11 -23 -25 4 -19 10 -43 15 -52 26 -51
42 -182 28 -227 -13 -40 -71 -110 -105 -127 -75 -38 -202 10 -232 88 -20 50 9
221 58 344 23 57 87 176 102 190 3 3 21 25 40 50 42 54 168 180 180 180 5 0
13 6 17 13 12 19 118 97 229 168 119 76 243 152 264 162 8 4 26 14 40 22 34
20 34 20 62 -23z m-1204 -1381 c27 -69 85 -161 134 -211 47 -50 161 -124 238
-155 36 -15 73 -31 82 -36 10 -5 24 -9 32 -9 35 0 178 -84 229 -135 65 -63
122 -170 138 -260 15 -80 14 -211 -3 -258 -12 -35 -20 -41 -93 -71 -95 -39
-265 -126 -310 -158 -92 -67 -223 -164 -232 -172 -6 -6 -44 -40 -84 -76 -40
-36 -88 -80 -106 -99 l-33 -33 -58 43 c-31 23 -59 45 -62 48 -5 6 -261 198
-387 290 -61 44 -238 141 -258 141 -4 0 -30 11 -59 25 -54 26 -73 51 -83 110
-10 56 -9 100 0 113 6 7 6 12 0 12 -22 0 35 207 63 230 8 7 14 18 14 24 0 15
76 96 125 132 45 34 128 78 165 89 14 4 41 14 60 22 19 9 51 22 70 30 168 69
286 176 350 316 17 37 30 70 29 74 -9 54 14 39 39 -26z m-193 -1893 c2 -2 -6
-21 -16 -43 -11 -22 -20 -42 -21 -45 0 -3 -4 -15 -9 -27 -5 -13 -14 -35 -19
-50 -13 -33 -22 -55 -63 -153 l-32 -75 -85 -17 c-47 -10 -101 -20 -120 -23
-129 -21 -299 -90 -338 -138 -22 -26 -21 -50 1 -87 23 -38 22 -37 117 -120 96
-84 178 -168 255 -261 32 -39 111 -162 138 -215 39 -77 89 -211 103 -275 13
-62 23 -115 29 -160 5 -36 4 -36 -29 -34 -19 2 -56 8 -83 14 -26 6 -59 13 -73
15 -14 3 -52 14 -85 26 -33 12 -65 23 -71 24 -42 8 -259 131 -328 186 -77 62
-172 155 -271 265 -130 146 -149 157 -191 116 -92 -89 -158 -262 -167 -438 -3
-48 -10 -89 -17 -99 -12 -14 -88 -57 -100 -57 -3 0 -14 -4 -25 -8 -46 -20
-321 -130 -330 -132 -5 -1 -9 8 -10 20 0 12 -3 25 -7 29 -4 4 -4 12 -1 18 4 6
8 20 9 31 0 11 4 46 8 77 4 32 7 60 7 63 0 2 5 19 10 37 5 18 12 47 14 63 3
17 10 44 16 61 5 17 11 40 13 50 7 36 76 205 115 282 59 117 157 276 180 292
4 3 12 12 17 21 22 41 179 209 265 284 80 71 263 203 339 244 79 42 200 100
235 112 22 7 45 16 50 20 10 6 96 34 180 58 74 21 187 41 264 47 42 3 78 8 79
9 4 4 43 -2 47 -7z m406 -2 c48 -3 93 -8 100 -10 8 -3 32 -7 54 -10 95 -13
282 -68 385 -113 83 -36 145 -68 148 -75 2 -4 9 -8 16 -8 19 0 175 -100 268
-171 84 -64 180 -150 233 -208 16 -18 46 -50 65 -70 44 -46 112 -136 167 -221
24 -36 47 -70 52 -76 9 -11 91 -178 124 -254 53 -121 109 -356 111 -467 0 -24
4 -43 9 -43 4 0 5 -5 1 -11 -4 -7 -7 -25 -6 -40 1 -33 -10 -36 -52 -14 -15 8
-36 15 -45 15 -9 0 -21 4 -26 9 -6 5 -35 17 -65 28 -156 56 -254 100 -267 120
-8 12 -16 43 -18 70 -14 169 -37 261 -94 359 -50 88 -89 134 -114 134 -13 0
-84 -65 -206 -189 -217 -220 -263 -257 -428 -343 -134 -70 -274 -114 -415
-132 l-48 -7 5 43 c3 24 8 57 11 73 6 39 44 177 52 190 4 6 7 17 9 25 5 38
120 244 178 322 69 92 186 214 300 313 106 93 115 103 115 127 -1 28 -15 46
-60 78 -127 91 -262 132 -432 134 -38 0 -68 4 -68 8 0 5 -11 31 -25 60 -14 28
-23 54 -20 56 3 3 1 10 -4 16 -9 11 -121 280 -121 290 0 3 6 4 13 1 6 -2 51
-6 98 -9z m-221 -48 c0 -5 9 -19 21 -31 20 -22 98 -175 104 -206 2 -9 4 -17 4
-18 1 -2 2 -6 2 -10 1 -5 5 -18 10 -31 5 -13 11 -41 14 -64 7 -59 33 -105 63
-116 15 -5 72 -8 127 -7 116 1 198 -14 275 -52 57 -28 80 -46 80 -60 0 -4 -15
-18 -34 -31 -45 -30 -222 -205 -266 -262 -19 -25 -40 -51 -47 -58 -7 -7 -13
-17 -13 -20 0 -4 -10 -19 -22 -33 -24 -26 -29 -34 -83 -129 -32 -56 -103 -216
-110 -247 -2 -10 -12 -45 -21 -78 -9 -33 -17 -67 -19 -75 -10 -53 -18 -108
-19 -129 -2 -17 -9 -27 -26 -31 -29 -6 -158 -5 -165 2 -3 3 -8 27 -11 54 -3
27 -9 65 -14 84 -5 19 -12 50 -15 68 -3 18 -17 66 -31 105 -13 40 -26 77 -27
82 -8 31 -122 251 -137 265 -3 3 -17 21 -30 40 -81 119 -200 244 -368 388
l-23 20 48 29 c63 39 73 43 161 67 63 18 112 21 212 12 80 -7 93 -3 118 42 6
12 12 32 12 45 0 59 86 295 112 305 4 2 8 9 8 15 0 7 16 34 36 60 34 47 36 48
55 31 10 -9 19 -21 19 -26z m6016 -355 c-10 -27 -20 -55 -23 -63 -3 -8 -7 -19
-9 -25 -1 -5 -10 -30 -19 -55 -35 -94 -36 -102 -13 -94 33 10 250 13 302 3 27
-5 62 -16 79 -24 17 -8 36 -15 44 -15 7 0 13 -3 13 -7 0 -5 16 -19 36 -32 20
-14 53 -50 74 -81 93 -137 94 -261 4 -445 -19 -38 -43 -81 -53 -93 l-17 -24
-77 41 c-72 38 -223 140 -277 187 -14 12 -63 54 -110 94 -47 40 -108 93 -136
119 -95 86 -162 142 -185 159 -13 9 -33 25 -44 35 -11 10 -35 27 -52 38 -18
12 -33 23 -33 26 0 8 91 115 110 130 8 6 31 25 50 43 63 57 278 145 309 126 4
-3 13 -1 21 4 23 14 24 4 6 -47z m-11956 32 c44 -9 180 -74 180 -85 0 -5 8
-11 18 -14 21 -7 182 -165 182 -179 0 -10 -25 -37 -35 -37 -3 0 -20 -13 -38
-29 -17 -15 -84 -72 -147 -127 -63 -54 -117 -101 -120 -104 -15 -17 -167 -144
-240 -201 -96 -75 -252 -179 -269 -179 -6 0 -11 -4 -11 -9 0 -5 -10 -11 -22
-14 -22 -6 -58 20 -58 43 0 5 -4 10 -10 10 -5 0 -10 5 -10 12 0 6 -7 19 -15
28 -17 18 -55 119 -62 160 -9 57 -2 184 10 196 4 4 7 16 7 26 0 10 4 18 9 18
5 0 12 11 15 25 12 47 133 159 185 170 9 2 32 9 51 15 33 11 108 20 175 22 35
1 147 -12 157 -18 14 -9 18 15 7 43 -6 15 -12 35 -14 43 -2 8 -18 54 -38 102
-19 48 -32 89 -30 92 6 6 80 0 123 -9z m1169 -225 c132 -27 235 -97 361 -249
25 -30 57 -68 72 -85 15 -17 28 -35 28 -39 0 -5 10 -7 23 -5 19 3 22 8 21 48
-1 25 -5 68 -8 95 -3 28 -9 77 -12 110 -3 33 -8 64 -11 68 -9 15 32 -2 108
-44 39 -21 76 -39 80 -39 5 0 9 -4 9 -10 0 -5 7 -10 15 -10 8 0 15 -4 15 -10
0 -5 5 -10 11 -10 17 0 122 -84 170 -136 24 -26 54 -58 66 -71 22 -23 20 -33
-7 -27 -55 14 -115 20 -173 18 -133 -5 -222 -71 -410 -304 -106 -131 -103
-144 24 -89 50 22 107 40 127 41 88 3 223 -62 249 -120 34 -76 -15 -192 -95
-223 -51 -21 -171 -10 -287 25 -54 16 -235 107 -235 118 0 4 -4 8 -10 8 -5 0
-22 10 -37 22 -41 33 -213 209 -248 253 -47 59 -195 283 -195 295 0 5 -3 10
-7 10 -7 0 -45 57 -48 70 0 3 -17 30 -36 60 -70 109 -70 107 -9 130 19 8 55
26 80 41 52 30 136 59 189 66 20 3 37 6 39 8 5 4 84 -4 141 -15z m9716 -4 c35
-8 172 -61 262 -103 l31 -14 -60 -102 c-119 -201 -201 -328 -265 -412 -89
-116 -207 -234 -292 -291 -31 -22 -58 -42 -61 -45 -18 -23 -216 -102 -281
-113 -18 -3 -54 -9 -79 -14 -79 -15 -133 -3 -177 38 -59 56 -67 154 -18 228
36 55 71 72 151 73 108 2 135 -2 194 -29 97 -45 92 -44 85 -22 -21 65 -106
192 -175 261 -78 78 -128 108 -225 135 -70 20 -224 18 -259 -3 -5 -3 2 9 15
27 21 29 67 76 144 149 60 56 289 185 313 176 7 -3 11 -8 8 -13 -5 -8 -14 -64
-21 -133 -3 -24 -9 -68 -14 -97 -7 -47 -6 -54 11 -63 21 -11 22 -11 89 52 15
13 44 51 66 84 122 182 345 274 558 231z m-10331 -369 c209 -432 491 -741 831
-908 39 -19 73 -38 76 -42 3 -5 9 -8 13 -8 24 3 -6 -17 -81 -53 -347 -169
-624 -470 -836 -908 -34 -71 -67 -128 -74 -128 -7 0 -13 5 -13 10 0 6 -7 10
-15 10 -8 0 -15 5 -15 11 0 5 -4 7 -10 4 -5 -3 -10 -2 -10 3 0 5 -21 24 -47
43 -39 27 -159 128 -209 174 -220 203 -379 321 -521 385 -74 34 -84 43 -59 57
7 4 41 33 75 63 137 121 320 221 431 235 33 4 60 -3 137 -35 53 -22 104 -40
113 -40 9 0 20 -3 24 -7 11 -11 35 -14 142 -18 88 -3 111 0 187 25 84 27 189
83 251 135 l30 24 -35 32 c-64 60 -153 116 -209 133 -14 4 -41 12 -60 17 -119
34 -319 9 -447 -56 -107 -54 -226 -28 -413 90 -69 44 -248 192 -239 198 2 2
39 20 82 41 123 59 265 161 437 315 19 17 49 44 65 59 29 25 113 99 161 139
12 10 34 28 50 40 85 65 110 82 119 82 6 0 37 -54 69 -122z m10875 76 c61 -44
227 -179 269 -220 53 -52 176 -158 267 -231 67 -53 262 -163 297 -166 22 -3
11 -20 -48 -72 -81 -72 -221 -174 -240 -174 -8 0 -14 -4 -14 -8 0 -9 -73 -40
-150 -64 -58 -19 -98 -14 -192 23 -43 17 -81 31 -85 31 -4 0 -19 4 -32 9 -57
22 -229 32 -291 17 -14 -4 -40 -10 -57 -14 -18 -3 -33 -11 -33 -16 0 -5 -4 -7
-9 -4 -4 3 -17 -1 -27 -9 -10 -8 -27 -15 -36 -15 -10 0 -18 -4 -18 -10 0 -5
-6 -10 -12 -10 -7 0 -44 -23 -81 -50 l-68 -50 38 -36 c40 -37 144 -105 154
-101 3 1 12 -3 20 -10 31 -26 162 -50 254 -46 106 4 132 7 141 16 4 4 14 7 22
7 8 0 55 17 106 37 89 36 171 49 206 32 42 -21 225 -128 244 -142 6 -4 45 -31
86 -60 90 -62 135 -96 129 -100 -2 -1 -29 -15 -59 -29 -76 -38 -142 -76 -149
-85 -3 -5 -19 -17 -36 -27 -16 -11 -34 -23 -40 -27 -17 -13 -159 -133 -171
-144 -130 -120 -320 -285 -329 -285 -4 0 -15 -8 -24 -18 -20 -22 -97 -72 -111
-72 -5 0 -10 5 -10 11 0 6 -18 48 -40 94 -22 46 -40 88 -40 94 0 6 -4 11 -10
11 -5 0 -10 4 -10 10 0 5 -20 44 -45 86 -25 41 -45 79 -45 84 0 5 -3 10 -7 12
-5 2 -21 23 -38 48 -16 25 -32 47 -35 50 -3 3 -21 25 -40 50 -19 25 -42 54
-50 64 -39 50 -208 210 -274 260 -84 63 -224 149 -310 191 l-59 28 65 22 c70
24 198 89 228 118 11 9 22 17 26 17 24 0 215 189 302 299 15 18 37 45 50 60
12 14 32 42 44 61 12 19 25 37 28 40 3 3 21 30 40 60 19 30 38 57 42 58 5 2 8
7 8 12 0 4 17 37 38 71 22 35 60 104 85 152 56 106 57 107 64 107 3 0 35 -21
72 -47z m-8250 -169 c18 -10 33 -31 40 -53 15 -53 102 -227 152 -307 40 -64
136 -203 149 -214 3 -3 27 -32 55 -65 45 -55 79 -93 164 -182 17 -18 31 -38
31 -45 0 -7 -19 -33 -41 -58 -102 -111 -119 -131 -171 -196 -76 -97 -268 -414
-268 -445 0 -5 -3 -9 -7 -9 -5 0 -19 -23 -33 -52 -14 -28 -40 -67 -58 -87
l-33 -36 -137 1 c-104 0 -148 5 -182 18 -25 9 -50 18 -56 19 -23 5 -111 68
-139 100 -62 69 -120 176 -159 290 -22 66 -84 190 -110 220 -12 13 -32 38 -46
54 -56 66 -187 146 -280 170 l-35 9 70 22 c72 22 172 79 216 124 51 53 89 98
89 107 0 5 3 11 8 13 12 5 69 128 90 193 43 134 94 220 176 299 47 45 148 101
200 111 12 2 21 4 21 5 0 1 13 4 30 6 16 3 31 6 32 8 1 1 48 1 103 0 73 -2
108 -8 129 -20z m5836 -9 c156 -62 245 -160 333 -365 65 -153 75 -172 125
-247 58 -87 104 -128 219 -196 86 -51 103 -67 72 -67 -63 0 -236 -126 -286
-208 -12 -20 -25 -39 -29 -42 -13 -10 -59 -109 -108 -233 -27 -68 -62 -144
-77 -168 -30 -47 -130 -149 -147 -149 -6 0 -18 -6 -26 -13 -16 -14 -101 -42
-156 -52 -16 -3 -78 -6 -138 -6 -132 -1 -145 6 -181 96 -96 240 -267 491 -505
740 l-50 52 85 88 c46 49 84 92 84 97 0 4 3 8 8 8 4 0 32 32 62 72 30 39 63
79 73 90 9 10 17 23 17 28 0 6 5 10 10 10 6 0 10 5 10 10 0 9 35 65 50 80 22
22 170 321 170 344 0 8 23 26 52 40 48 24 60 26 157 23 88 -3 118 -9 176 -32z
m-4252 -279 c139 -140 288 -266 315 -266 5 0 12 -4 14 -9 4 -11 162 -91 180
-91 8 0 18 -4 24 -8 10 -8 71 -31 101 -37 10 -1 54 -12 99 -24 44 -11 98 -23
120 -27 48 -7 94 -30 95 -47 2 -47 -1 -149 -5 -156 -6 -8 -29 -14 -110 -27
-21 -3 -48 -8 -60 -10 -11 -3 -32 -7 -46 -10 -55 -10 -189 -58 -269 -96 -174
-83 -309 -186 -488 -373 -113 -117 -153 -146 -153 -110 0 8 -3 15 -8 15 -6 0
-55 101 -58 122 -1 5 -2 9 -4 11 -9 11 -13 62 -14 178 -1 115 -4 140 -19 156
-9 11 -23 20 -30 20 -43 3 -224 59 -287 89 -74 36 -180 108 -180 122 0 8 107
80 155 105 52 26 149 65 183 72 12 3 32 8 45 11 12 3 31 7 42 8 87 10 97 29
99 189 2 136 12 190 49 267 20 41 47 80 55 80 1 0 71 -69 155 -154z m2457 131
c42 -59 76 -158 86 -245 2 -24 5 -47 6 -50 1 -4 -2 -42 -6 -85 -7 -74 -6 -80
15 -103 12 -13 38 -26 58 -30 20 -3 50 -10 66 -14 17 -5 41 -11 55 -14 14 -2
39 -10 55 -17 17 -7 32 -13 35 -13 34 -6 190 -99 198 -118 2 -5 10 -8 17 -8
30 0 22 -19 -23 -54 -26 -19 -51 -39 -57 -43 -47 -37 -221 -99 -330 -119 -31
-5 -74 -29 -76 -42 -1 -4 -3 -56 -4 -117 -3 -99 -7 -152 -18 -195 -12 -45 -54
-139 -76 -168 l-17 -23 -40 48 c-102 124 -280 286 -404 368 -25 17 -47 32 -50
35 -16 16 -237 117 -273 124 -12 3 -41 12 -64 20 -23 9 -55 18 -70 21 -15 2
-39 7 -53 10 -38 7 -103 17 -125 19 -18 1 -20 9 -21 76 -2 108 6 116 149 145
103 21 174 42 237 68 14 6 27 11 30 12 28 9 110 51 175 89 147 88 271 194 429
370 37 42 71 76 75 76 3 0 13 -11 21 -23z m-1234 -702 c0 -38 -2 -76 -4 -82
-3 -9 -29 -13 -83 -13 -68 0 -79 2 -80 18 -1 27 -1 115 0 135 1 15 10 17 84
15 l82 -3 1 -70z m-2023 -143 c23 -11 116 -49 207 -86 91 -37 173 -74 183 -81
20 -14 25 -35 32 -115 11 -141 26 -194 87 -315 39 -75 83 -132 109 -140 20 -7
83 26 96 50 32 56 241 269 348 353 39 31 152 102 162 102 7 0 13 4 13 9 0 8
57 35 155 72 52 20 188 58 239 66 16 3 40 9 53 14 48 18 50 14 41 -58 -5 -38
-16 -95 -24 -128 -9 -33 -18 -71 -20 -85 -12 -62 -113 -274 -149 -316 -5 -6
-21 -26 -35 -44 -59 -79 -82 -104 -256 -276 -152 -150 -182 -185 -177 -203 13
-49 159 -142 278 -176 55 -16 129 -24 228 -25 49 0 71 -23 92 -96 18 -62 46
-132 110 -278 8 -19 15 -37 15 -40 0 -6 -153 1 -210 9 -50 7 -182 35 -200 42
-8 4 -17 7 -20 7 -14 3 -98 29 -115 37 -11 5 -44 18 -74 29 -156 60 -342 171
-506 301 -80 63 -230 210 -275 268 -14 18 -37 47 -52 64 -15 18 -28 35 -28 39
0 4 -7 13 -15 22 -22 22 -107 161 -149 244 -61 120 -114 261 -141 372 -34 139
-38 161 -50 275 -3 28 -7 62 -9 78 -4 32 2 33 57 9z m3921 -79 c-3 -88 -9
-150 -18 -188 -2 -11 -9 -39 -14 -62 -5 -24 -8 -43 -5 -43 3 0 1 -6 -5 -13 -6
-7 -13 -26 -16 -42 -6 -33 -38 -127 -46 -135 -3 -3 -6 -12 -8 -20 -6 -27 -94
-204 -135 -270 -60 -96 -147 -213 -207 -280 -115 -127 -196 -202 -325 -299
-22 -17 -44 -34 -50 -39 -105 -82 -423 -235 -557 -267 -105 -25 -256 -54 -318
-60 -41 -4 -84 -8 -95 -9 -11 -1 -23 -1 -27 1 -7 3 18 88 32 108 3 6 13 30 20
55 7 25 17 50 20 55 4 6 20 45 36 89 38 102 50 111 169 121 33 3 71 7 85 11
14 3 34 7 45 8 11 2 21 5 23 6 1 1 7 4 12 5 6 1 11 3 13 5 1 1 10 3 20 5 34 6
162 75 200 108 63 53 58 71 -54 188 -179 186 -231 242 -304 329 -44 52 -87
103 -96 112 -42 47 -150 301 -134 316 2 2 0 13 -5 23 -6 9 -12 35 -15 56 -3
21 -9 52 -12 68 -16 73 -10 74 187 30 109 -24 258 -83 323 -127 15 -11 27 -16
27 -11 0 4 4 3 8 -3 4 -6 27 -24 52 -39 25 -16 56 -38 70 -51 148 -132 283
-267 348 -348 30 -38 73 -65 90 -59 22 8 92 84 92 101 0 6 3 12 8 12 4 0 16
19 26 43 55 124 73 206 72 325 -1 71 -1 72 29 84 17 6 67 29 113 50 46 21 85
38 87 38 4 0 103 44 180 80 63 30 63 30 59 -67z m-1883 0 c1 -7 2 -16 3 -20 1
-5 6 -33 10 -63 4 -30 10 -62 11 -70 2 -8 6 -27 9 -41 3 -14 17 -59 31 -100
14 -41 27 -81 29 -90 13 -51 133 -256 201 -343 68 -89 215 -241 298 -310 26
-22 47 -42 47 -46 0 -14 -136 -78 -200 -95 -49 -13 -91 -16 -170 -12 -62 3
-114 0 -127 -6 -24 -11 -28 -20 -64 -166 -11 -47 -27 -97 -35 -113 -8 -15 -13
-29 -12 -30 4 -5 -65 -122 -97 -165 l-32 -42 -20 22 c-32 36 -84 114 -99 147
-3 8 -14 33 -23 55 -17 38 -37 105 -45 150 -11 64 -22 88 -48 113 -29 29 -29
29 -149 26 -105 -2 -130 1 -190 21 -72 25 -149 64 -149 75 0 4 9 17 19 29 19
22 163 180 191 211 14 15 123 142 159 185 91 111 195 332 215 460 4 20 8 40
10 44 2 3 7 32 10 63 7 68 20 103 40 115 25 14 176 10 177 -4z m4174 -28 c53
-7 62 -9 115 -24 60 -17 200 -82 200 -92 0 -5 5 -9 11 -9 27 0 195 -149 249
-220 14 -19 35 -44 48 -56 12 -13 22 -27 22 -33 0 -5 3 -11 8 -13 14 -6 312
-431 312 -444 0 -3 11 -20 24 -37 l25 -32 -57 -30 c-31 -16 -77 -41 -102 -55
-25 -13 -49 -26 -55 -27 -5 -1 -35 -10 -65 -18 -53 -16 -189 -23 -208 -11 -5
3 -24 8 -42 11 -34 6 -199 79 -210 93 -3 4 -14 12 -25 18 -18 10 -45 42 -100
119 -11 16 -44 57 -74 92 -45 53 -56 61 -72 52 -21 -11 -23 -32 -9 -129 23
-169 23 -213 -3 -191 -7 5 -43 26 -81 46 -37 20 -98 56 -135 80 -74 49 -191
155 -191 173 0 7 -4 12 -10 12 -5 0 -17 15 -26 33 -13 25 -14 29 -2 20 13 -12
109 -28 153 -26 79 2 159 28 230 71 35 22 143 125 170 163 33 45 105 176 105
191 0 4 -24 -4 -52 -17 -29 -14 -59 -25 -65 -25 -7 0 -13 -4 -13 -8 0 -5 -6
-9 -12 -9 -7 -1 -27 -6 -45 -11 -18 -6 -56 -9 -85 -7 -74 5 -117 29 -172 95
-28 34 -30 115 -5 165 24 47 65 85 90 85 10 0 20 3 22 8 5 8 67 6 132 -3z
m-8319 -22 c45 -21 84 -86 84 -141 0 -91 -98 -184 -195 -184 -48 0 -124 19
-144 35 -8 7 -15 10 -15 8 -2 -6 -91 21 -104 31 -62 52 66 -175 149 -262 40
-42 111 -95 160 -118 49 -23 163 -50 195 -46 10 2 37 5 59 8 22 3 53 8 70 11
28 6 29 5 13 -12 -10 -10 -39 -42 -65 -71 -51 -57 -164 -152 -181 -152 -6 0
-12 -4 -14 -9 -1 -5 -52 -35 -112 -66 l-108 -56 7 73 c3 40 8 87 10 103 17
132 17 143 -4 150 -23 7 -83 -46 -127 -115 -67 -103 -133 -162 -239 -214 -117
-57 -243 -72 -344 -42 -63 18 -290 116 -297 127 -5 9 33 71 48 77 4 2 8 10 8
17 0 7 4 15 8 17 5 2 28 32 53 68 24 36 49 69 55 75 6 5 26 33 45 60 97 145
266 354 354 438 43 41 166 130 184 133 3 0 26 10 51 21 42 19 154 48 210 56
56 7 150 -3 186 -20z m-2334 -337 c26 -13 64 -34 85 -47 38 -23 218 -154 239
-173 7 -6 29 -25 50 -43 22 -17 50 -41 64 -53 14 -12 52 -45 85 -73 32 -29 69
-61 80 -72 12 -11 68 -58 126 -104 57 -46 110 -90 118 -97 12 -11 10 -19 -14
-51 -78 -103 -213 -201 -325 -236 -75 -22 -165 -34 -156 -19 8 13 96 263 96
272 0 4 -19 4 -42 1 -24 -3 -97 -6 -163 -5 -101 0 -130 4 -182 23 -35 13 -63
28 -63 32 0 5 -6 9 -14 9 -23 0 -114 108 -143 169 -41 85 -42 183 -4 283 5 13
10 28 12 33 2 6 20 41 41 79 21 38 38 75 38 82 0 20 18 17 72 -10z m12910 -68
c56 -112 79 -178 82 -238 10 -178 -135 -355 -320 -390 -60 -12 -241 -9 -300 4
-18 4 -21 1 -17 -17 3 -12 9 -31 14 -42 8 -19 79 -216 79 -221 0 -6 -109 7
-140 17 -101 30 -181 81 -275 174 -52 52 -95 97 -95 102 0 4 14 17 30 28 16
11 30 23 30 28 0 4 6 7 13 7 7 0 20 8 28 18 9 9 31 28 49 42 32 25 100 84 149
128 14 13 53 47 85 75 33 29 64 57 70 62 6 6 36 30 66 55 30 25 57 47 60 50
32 36 295 202 304 193 3 -4 6 -1 6 5 0 7 8 12 18 12 12 0 32 -28 64 -92z
m-6462 -1528 c3 -3 21 -17 40 -32 19 -14 44 -34 55 -44 11 -11 46 -39 78 -63
31 -24 57 -48 57 -53 0 -5 4 -7 9 -4 5 4 11 3 13 -1 6 -14 135 -113 147 -113
6 0 11 -4 11 -8 0 -5 12 -15 28 -23 15 -8 29 -17 32 -21 3 -4 79 -44 170 -90
207 -104 210 -108 205 -246 -10 -267 -116 -411 -390 -526 -194 -82 -322 -165
-387 -251 -43 -57 -108 -163 -108 -177 0 -24 -24 2 -38 42 -28 75 -58 124
-109 176 -85 88 -156 130 -346 204 -172 66 -244 115 -308 207 -31 45 -73 159
-63 174 3 5 1 9 -3 9 -5 0 -9 8 -9 18 -1 9 -4 44 -8 77 -18 149 -16 171 14
202 15 15 56 39 91 53 125 49 352 180 457 265 89 72 150 124 222 193 l85 80
25 -21 c14 -12 27 -24 30 -27z m-965 -1599 c-14 -24 -21 -168 -10 -236 10 -65
68 -176 122 -235 28 -30 90 -80 138 -110 48 -30 102 -65 121 -77 19 -12 34
-18 34 -13 0 5 -16 51 -35 102 -61 159 -58 234 14 307 46 47 98 65 163 58 59
-7 100 -35 123 -83 36 -76 9 -252 -61 -399 -32 -67 -63 -124 -74 -135 -3 -3
-22 -27 -44 -53 -54 -68 -129 -139 -216 -208 -97 -76 -83 -66 -175 -129 -44
-30 -81 -58 -83 -62 -2 -4 -8 -8 -14 -8 -5 0 -24 -11 -41 -24 -48 -37 -230
-146 -242 -146 -19 0 -95 144 -122 227 -45 146 -27 299 52 431 46 75 45 75
155 167 163 137 171 145 160 166 -6 11 -18 16 -32 14 -13 -2 -50 -6 -83 -10
-33 -3 -80 -8 -105 -11 -25 -3 -60 -7 -78 -9 -18 -2 -31 0 -28 3 2 4 11 25 21
47 28 61 108 195 117 195 4 0 8 7 8 16 0 8 47 62 104 120 94 93 129 123 111
95z m1857 -12 c22 -10 132 -117 171 -168 45 -57 167 -271 167 -292 0 -4 -16
-6 -35 -4 -19 3 -53 7 -77 10 -24 2 -74 8 -113 13 -78 10 -92 8 -97 -16 -4
-21 73 -98 147 -146 76 -49 151 -137 185 -216 6 -14 15 -34 20 -45 34 -76 46
-215 25 -294 -14 -53 -52 -146 -98 -241 -17 -36 -30 -68 -29 -72 1 -5 1 -8 -1
-8 -3 0 -354 260 -422 312 -136 106 -278 224 -331 275 -59 58 -162 219 -170
268 -1 6 -10 37 -20 70 -12 40 -18 94 -18 160 -1 132 13 158 113 205 27 12
124 -10 158 -36 72 -55 86 -133 48 -280 -33 -125 -35 -134 -30 -134 3 0 24 8
47 17 149 58 287 202 337 351 24 71 27 187 7 245 -15 42 -16 41 16 26z m-898
-709 c81 -167 165 -285 306 -428 122 -124 193 -181 355 -287 51 -34 341 -185
376 -197 8 -3 -4 -28 -31 -69 -24 -35 -46 -66 -49 -69 -3 -3 -24 -27 -46 -55
-40 -51 -83 -100 -144 -164 -18 -20 -50 -56 -70 -80 -20 -25 -49 -58 -65 -74
-38 -40 -166 -213 -166 -226 0 -5 -6 -16 -12 -23 -17 -17 -68 -120 -68 -134 0
-6 -6 -16 -13 -22 -10 -8 -17 -7 -28 6 -29 33 -101 117 -118 137 -58 70 -127
195 -156 280 -27 79 -26 124 1 191 54 131 76 218 80 310 2 51 0 105 -5 120 -5
16 -15 49 -22 74 -22 73 -146 270 -171 270 -14 0 -99 -129 -128 -194 -45 -99
-60 -176 -55 -286 2 -52 9 -111 15 -130 6 -19 13 -42 15 -52 2 -9 18 -48 35
-88 17 -39 32 -84 32 -99 1 -40 -22 -129 -48 -186 -23 -50 -120 -206 -134
-215 -5 -3 -35 -40 -68 -83 l-60 -78 -42 83 c-61 121 -133 230 -206 315 -11
12 -28 32 -38 45 -28 34 -149 171 -162 183 -6 6 -33 37 -60 70 -27 33 -54 65
-60 70 -21 20 -114 153 -114 163 0 11 83 52 105 52 8 0 15 4 17 8 2 4 41 27
88 51 47 24 93 51 103 59 9 8 17 11 17 6 0 -5 4 -4 8 2 4 5 25 21 47 34 66 39
230 165 301 232 106 100 234 260 300 373 45 78 91 174 86 179 -3 3 -1 6 4 6 5
0 26 -36 48 -80z m-1290 -1057 c59 -77 272 -326 314 -370 8 -7 48 -55 89 -106
41 -50 81 -101 90 -111 47 -58 183 -280 183 -300 0 -12 -191 -103 -255 -121
-192 -56 -405 73 -462 280 -18 69 -16 305 4 338 6 11 -22 9 -54 -4 -46 -18
-217 -80 -228 -82 -5 -1 -9 3 -8 9 1 6 4 28 7 50 11 84 42 170 88 240 33 52
183 204 200 204 6 0 20 -12 32 -27z m2614 -50 c85 -85 126 -133 114 -133 -4 0
-2 -4 4 -8 38 -26 117 -282 86 -282 -5 0 -56 16 -113 36 -57 20 -118 40 -136
44 l-31 8 6 -57 c8 -68 8 -215 0 -256 -10 -55 -31 -115 -39 -115 -4 0 -11 -10
-14 -22 -13 -40 -107 -120 -181 -154 -65 -30 -78 -33 -150 -30 -84 4 -137 22
-269 92 -38 20 -71 37 -72 38 -5 4 71 137 110 196 41 60 142 194 170 224 12
13 38 43 59 67 44 53 62 74 133 153 73 83 93 106 118 139 12 16 29 36 37 45 9
10 28 34 43 55 16 20 32 37 38 37 5 0 44 -35 87 -77z"/>
<path d="M9969 13590 c-65 -19 -115 -71 -124 -133 -8 -45 3 -65 70 -135 88
-90 88 -148 0 -238 -61 -63 -73 -79 -88 -126 -30 -86 -7 -171 96 -358 69 -126
92 -143 117 -93 8 15 31 57 52 92 21 34 38 65 38 66 0 2 15 34 32 72 28 58 33
79 33 143 0 87 -13 116 -83 191 -51 55 -82 104 -82 132 0 30 36 90 74 125 51
46 69 78 68 119 -4 92 -112 169 -203 143z"/>
<path d="M8894 11142 c-40 -6 -14 -121 50 -215 14 -21 26 -40 26 -43 0 -17
193 -215 250 -256 25 -18 47 -35 50 -38 6 -8 113 -76 155 -100 21 -11 41 -14
69 -9 45 7 58 24 51 63 -6 33 -56 139 -67 144 -5 2 -8 10 -8 18 0 8 -4 14 -10
14 -5 0 -10 7 -10 15 0 8 -4 15 -8 15 -5 0 -14 11 -19 23 -18 39 -171 194
-242 244 -158 114 -210 137 -287 125z"/>
<path d="M10983 11093 c-181 -108 -317 -240 -427 -410 -55 -86 -69 -118 -67
-162 2 -73 46 -77 158 -16 153 84 291 207 397 355 81 113 106 165 106 222 l0
49 -56 -2 c-43 -2 -69 -10 -111 -36z"/>
<path d="M9995 11511 c-3 -11 -8 -28 -10 -38 -2 -10 -8 -38 -13 -63 -12 -55
-11 -42 -12 -287 -1 -112 -5 -205 -9 -207 -8 -6 -36 27 -121 141 -34 46 -82
104 -108 129 -43 42 -149 104 -179 104 -7 0 25 -51 71 -112 96 -131 186 -277
244 -398 56 -119 82 -180 75 -180 -3 0 -1 -6 4 -12 6 -7 25 -57 42 -110 18
-54 36 -98 41 -98 4 0 7 8 5 18 -1 9 4 33 12 52 8 19 13 35 12 35 -10 0 102
284 123 311 4 6 19 31 32 55 44 82 61 113 68 123 4 6 49 73 100 149 51 76 99
147 107 158 13 18 12 18 -20 7 -86 -29 -151 -84 -247 -208 -37 -47 -69 -87
-72 -90 -3 -3 -18 -23 -34 -44 -26 -34 -30 -37 -36 -21 -4 10 -5 107 -4 214 3
212 -3 267 -40 354 -19 42 -22 45 -31 18z"/>
<path d="M7074 10177 c-60 -18 -91 -37 -139 -87 -96 -100 -164 -101 -260 -6
-52 50 -101 71 -149 62 -50 -9 -109 -84 -108 -138 0 -64 77 -167 127 -170 48
-3 91 11 122 40 119 114 158 114 283 -1 29 -26 66 -55 84 -64 34 -18 120 -23
151 -9 11 5 22 10 25 11 30 8 80 31 80 37 0 4 5 8 12 8 6 0 60 23 119 52 89
43 107 55 103 71 -2 11 -5 21 -6 22 -34 28 -155 102 -210 128 -100 47 -177 62
-234 44z"/>
<path d="M12804 10162 c-104 -45 -265 -125 -270 -134 -3 -4 -14 -8 -25 -8 -10
0 -19 -4 -19 -9 0 -12 82 -80 135 -112 72 -43 80 -48 105 -59 14 -6 34 -14 45
-19 105 -48 207 -30 300 52 89 78 100 87 127 92 43 10 95 -12 126 -53 36 -49
44 -57 69 -70 54 -29 132 -5 182 58 35 43 47 85 37 126 -9 36 -96 120 -131
126 -52 10 -82 -4 -158 -78 -88 -84 -137 -77 -257 37 -84 79 -166 95 -266 51z"/>
<path d="M8710 10462 c0 -56 112 -199 205 -262 12 -8 29 -22 38 -30 9 -8 44
-35 77 -60 33 -25 60 -48 60 -52 0 -9 -17 -10 -275 -12 -143 -1 -195 -5 -252
-20 -78 -21 -100 -42 -55 -52 15 -4 32 -11 38 -15 6 -5 29 -10 51 -12 22 -2
44 -6 49 -9 5 -3 88 -6 184 -6 241 0 260 -1 260 -9 0 -5 -20 -21 -44 -38 -47
-33 -146 -120 -262 -231 -66 -63 -74 -75 -74 -107 0 -20 2 -37 5 -37 20 0 141
84 175 120 3 3 21 17 40 30 19 13 37 27 40 30 16 18 231 141 280 160 19 7 43
20 53 28 9 8 17 12 17 7 0 -4 7 -1 17 6 9 8 17 13 17 11 1 -2 15 2 31 8 17 7
37 13 45 15 8 2 53 18 100 34 47 17 86 31 88 31 2 0 0 5 -3 10 -3 6 -16 10
-28 10 -48 1 -277 89 -397 153 -30 16 -68 36 -85 45 -35 18 -327 211 -367 242
-16 12 -28 17 -28 12z"/>
<path d="M11160 10364 c-85 -58 -173 -115 -195 -126 -22 -11 -42 -24 -45 -28
-13 -18 -327 -160 -385 -174 -5 -2 -30 -8 -55 -15 -25 -7 -53 -15 -64 -17 -31
-6 -28 -10 16 -24 199 -61 392 -144 506 -216 29 -19 55 -34 58 -34 9 0 129
-83 132 -92 2 -4 8 -8 14 -8 5 0 43 -27 84 -60 41 -33 76 -60 79 -60 12 0 3
57 -15 95 -21 43 -69 92 -150 155 -25 19 -53 42 -62 50 -9 8 -44 35 -77 60
-33 25 -60 48 -61 53 0 4 17 7 38 8 20 0 120 2 222 3 102 2 196 6 209 9 57 15
121 39 126 47 5 9 -57 41 -73 39 -4 -1 -9 0 -12 1 -21 8 -84 11 -283 14 -126
2 -231 6 -234 9 -2 3 5 14 17 24 12 10 27 23 34 28 6 6 46 36 89 68 103 77
181 159 218 230 17 32 29 61 27 62 -2 2 -73 -43 -158 -101z"/>
<path d="M9448 9520 c-24 -7 -83 -46 -116 -77 -7 -7 -17 -13 -21 -13 -4 0 -17
-8 -28 -17 -11 -10 -35 -29 -54 -43 -108 -81 -215 -189 -264 -266 -19 -30 -35
-56 -35 -59 0 -2 -14 -26 -30 -52 -17 -27 -32 -63 -35 -81 -3 -27 1 -34 26
-47 16 -9 40 -13 54 -11 64 12 251 137 350 235 65 64 95 101 153 186 70 103
88 145 88 196 -1 37 -4 44 -21 44 -11 1 -25 3 -30 6 -6 4 -22 3 -37 -1z"/>
<path d="M10528 9512 c-29 -3 -33 -15 -28 -72 3 -35 50 -124 106 -200 132
-179 391 -382 491 -385 69 -2 86 32 55 107 -12 30 -96 170 -121 202 -47 61
-206 209 -271 253 -130 87 -170 103 -232 95z"/>
<path d="M9970 9483 c-50 -152 -156 -375 -236 -493 -51 -77 -149 -205 -181
-238 -7 -7 -13 -17 -13 -22 0 -5 -3 -15 -6 -24 -8 -22 23 -20 61 5 17 10 37
22 45 26 34 16 114 94 159 153 14 19 28 37 32 40 3 3 12 14 20 26 26 39 92
114 99 114 4 0 8 -20 8 -45 1 -25 4 -50 7 -55 4 -6 3 -10 -2 -10 -9 0 -9 -250
1 -330 14 -120 33 -187 47 -173 5 5 19 36 31 69 20 54 22 80 23 297 1 130 5
241 9 245 4 4 14 -2 21 -13 8 -11 18 -24 22 -30 5 -5 24 -32 43 -60 66 -94
192 -230 232 -251 30 -15 98 -29 98 -19 0 3 -21 34 -47 69 -81 108 -88 117
-103 144 -8 15 -21 32 -27 40 -17 17 -85 134 -132 225 -67 130 -143 325 -157
403 -3 16 -7 30 -8 32 -2 1 -22 -55 -46 -125z"/>
<path d="M9993 7503 c-4 -10 -9 -20 -12 -23 -23 -20 -121 -186 -121 -205 0 -7
-4 -15 -8 -17 -5 -1 -15 -23 -23 -48 -29 -91 -1 -179 101 -313 69 -93 64 -160
-21 -245 -92 -94 -88 -159 16 -232 33 -23 50 -28 86 -25 80 5 149 70 162 152
6 35 -23 85 -67 117 -31 23 -64 73 -70 107 -5 34 18 85 68 149 41 53 67 93 73
115 33 124 10 219 -90 370 -22 33 -51 73 -64 88 -21 26 -24 27 -30 10z"/>
<path d="M2123 10345 c-91 -33 -157 -86 -225 -184 l-31 -44 -19 24 c-84 109
-110 128 -171 124 -64 -5 -180 -71 -263 -150 -12 -11 -42 -39 -68 -62 -25 -23
-46 -50 -46 -58 0 -28 108 -154 132 -155 4 0 13 -6 20 -12 17 -17 145 -77 178
-84 98 -22 148 3 211 104 11 17 24 32 27 32 4 0 17 -17 29 -38 11 -21 42 -61
68 -90 116 -129 287 -153 498 -70 31 12 57 26 57 30 0 5 5 8 11 8 34 0 299
243 299 274 0 27 -117 149 -210 219 -30 23 -56 45 -58 50 -2 4 -8 7 -12 7 -5
0 -32 13 -60 30 -27 16 -50 27 -50 24 0 -4 -6 -2 -12 4 -23 18 -124 39 -186
39 -35 0 -84 -9 -119 -22z m227 -275 c27 -11 69 -32 92 -46 l42 -27 -34 -28
c-52 -43 -119 -71 -181 -75 -46 -2 -64 2 -105 26 -27 15 -56 39 -63 53 -13 24
-12 28 15 51 75 66 147 80 234 46z"/>
<path d="M17640 10347 c-54 -19 -202 -103 -220 -126 -3 -3 -34 -31 -70 -61
-36 -30 -67 -57 -70 -60 -3 -3 -31 -27 -62 -54 l-57 -48 117 -100 c138 -119
198 -165 272 -208 69 -41 175 -68 246 -63 59 4 155 36 178 59 8 8 17 14 21 14
12 0 92 85 124 133 18 26 36 47 40 47 4 0 13 -11 19 -25 16 -35 72 -94 102
-109 27 -13 78 -14 107 -1 21 10 16 8 71 24 45 13 77 38 200 158 l74 71 -94
94 c-94 96 -147 129 -263 166 -35 11 -99 6 -103 -8 -2 -6 -9 -10 -15 -10 -10
0 -49 -50 -88 -112 -4 -7 -13 -7 -25 1 -11 6 -15 11 -10 11 11 0 -57 85 -105
130 -100 95 -250 125 -389 77z m205 -277 c23 -11 54 -34 70 -51 l30 -30 -35
-31 c-84 -73 -158 -84 -255 -37 -33 16 -71 38 -84 49 -31 26 -20 39 71 85 83
41 140 45 203 15z"/>
<path d="M9964 2784 c-22 -25 -56 -64 -78 -87 -56 -61 -166 -210 -166 -224 0
-7 -4 -13 -10 -13 -5 0 -10 -9 -10 -19 0 -11 -4 -22 -9 -25 -17 -11 -44 -112
-46 -176 -2 -74 13 -133 52 -199 29 -50 115 -137 144 -146 11 -4 19 -10 19
-15 0 -5 9 -12 20 -15 27 -9 25 -24 -5 -35 -34 -13 -100 -82 -112 -117 -13
-38 -9 -76 18 -153 38 -113 133 -236 212 -276 27 -14 30 -13 75 20 123 91 210
248 199 361 -3 31 -11 63 -19 73 -7 9 -17 22 -23 29 -5 7 -25 29 -42 49 -36
39 -41 54 -18 54 8 0 15 4 15 9 0 5 8 12 18 15 33 11 120 107 153 169 29 55
33 72 35 147 2 104 -22 185 -93 303 -46 76 -191 240 -259 292 l-31 24 -39 -45z
m106 -409 c56 -98 49 -185 -20 -269 l-38 -46 -32 27 c-37 31 -70 100 -70 147
0 51 26 124 62 177 31 45 34 47 51 32 9 -9 31 -40 47 -68z"/>
</g>
</svg>
